0
SECTION
2
HEADER
9
$INSUNITS
70
4
9
$ACADVER
1
AC1014
9
$HANDSEED
5
FFFF
0
ENDSEC
0
SECTION
2
TABLES
0
TABLE
2
VPORT
5
8
100
AcDbSymbolTable
0
ENDTAB
0
TABLE
2
LTYPE
5
5
100
AcDbSymbolTable
0
LTYPE
5
14
100
AcDbSymbolTableRecord
100
AcDbLinetypeTableRecord
2
BYBLOCK
70
0
0
LTYPE
5
15
100
AcDbSymbolTableRecord
100
AcDbLinetypeTableRecord
2
BYLAYER
70
0
0
ENDTAB
0
TABLE
2
LAYER
5
2
100
AcDbSymbolTable
70
2
0
LAYER
5
50
100
AcDbSymbolTableRecord
100
AcDbLayerTableRecord
2
0
70
0
6
CONTINUOUS
0
ENDTAB
0
TABLE
2
STYLE
5
3
100
AcDbSymbolTable
70
1
0
STYLE
5
11
100
AcDbSymbolTableRecord
100
AcDbTextStyleTableRecord
2
STANDARD
70
0
0
ENDTAB
0
TABLE
2
VIEW
5
6
100
AcDbSymbolTable
70
0
0
ENDTAB
0
TABLE
2
UCS
5
7
100
AcDbSymbolTable
70
0
0
ENDTAB
0
TABLE
2
APPID
5
9
100
AcDbSymbolTable
70
2
0
APPID
5
12
100
AcDbSymbolTableRecord
100
AcDbRegAppTableRecord
2
ACAD
70
0
0
ENDTAB
0
TABLE
2
DIMSTYLE
5
A
100
AcDbSymbolTable
70
1
0
ENDTAB
0
TABLE
2
BLOCK_RECORD
5
1
100
AcDbSymbolTable
70
1
0
BLOCK_RECORD
5
1F
100
AcDbSymbolTableRecord
100
AcDbBlockTableRecord
2
*MODEL_SPACE
0
BLOCK_RECORD
5
1B
100
AcDbSymbolTableRecord
100
AcDbBlockTableRecord
2
*PAPER_SPACE
0
ENDTAB
0
ENDSEC
0
SECTION
2
BLOCKS
0
BLOCK
5
20
100
AcDbEntity
100
AcDbBlockBegin
2
*MODEL_SPACE
0
ENDBLK
5
21
100
AcDbEntity
100
AcDbBlockEnd
0
BLOCK
5
1C
100
AcDbEntity
100
AcDbBlockBegin
2
*PAPER_SPACE
0
ENDBLK
5
1D
100
AcDbEntity
100
AcDbBlockEnd
0
ENDSEC
0
SECTION
2
ENTITIES
0
ARC
5
100
100
AcDbEntity
8
0
100
AcDbCircle
10
0
20
0
30
0
40
14.3492
210
-0
220
0
230
1
100
AcDbArc
50
344.07296803090532
51
345.92703196909463
0
ARC
5
101
100
AcDbEntity
8
0
100
AcDbCircle
10
15.458389338943091
20
-3.8751265702749076
30
0
40
1.5875000000000004
210
0
220
-0
230
1
100
AcDbArc
50
81.678025721781353
51
165.9270319690948
0
LINE
5
102
100
AcDbEntity
8
0
100
AcDbLine
10
15.688157257572676
20
-2.3043423859998593
30
0
11
16.734994577066523
21
-2.4574694892975577
31
0
0
LWPOLYLINE
5
103
100
AcDbEntity
8
0
100
AcDbPolyline
90
2
43
0.0
10
16.734994577066523
20
-2.4574694892975577
10
20.979350810058214
20
-0.9310422055469505
0
ARC
5
104
100
AcDbEntity
8
0
100
AcDbCircle
10
0
20
0
30
0
40
21
210
-0
220
0
230
1
100
AcDbArc
50
-2.5410609693684001
51
2.5410609693682815
0
LWPOLYLINE
5
105
100
AcDbEntity
8
0
100
AcDbPolyline
90
2
43
0.0
10
20.979350810058214
20
0.9310422055469504
10
16.734994577066523
20
2.4574694892975577
0
LINE
5
106
100
AcDbEntity
8
0
100
AcDbLine
10
16.734994577066523
20
2.4574694892975577
30
0
11
15.688157257572676
21
2.3043423859998593
31
0
0
ARC
5
107
100
AcDbEntity
8
0
100
AcDbCircle
10
15.458389338943091
20
3.875126570274908
30
0
40
1.5874999999999986
210
0
220
0
230
1
100
AcDbArc
50
194.07296803090534
51
278.32197427821865
0
ARC
5
108
100
AcDbEntity
8
0
100
AcDbCircle
10
0
20
0
30
0
40
14.3492
210
0
220
-0
230
1
100
AcDbArc
50
14.072968030905319
51
15.927031969094614
0
ARC
5
109
100
AcDbEntity
8
0
100
AcDbCircle
10
15.324921154252706
20
4.3732366167334096
30
0
40
1.5875000000000006
210
0
220
0
230
1
100
AcDbArc
50
111.67802572178135
51
195.9270319690948
0
LINE
5
110
100
AcDbEntity
8
0
100
AcDbLine
10
14.738513916623079
20
5.848459583493212
30
0
11
15.721665180583207
21
6.2392662817764055
31
0
0
LWPOLYLINE
5
111
100
AcDbEntity
8
0
100
AcDbPolyline
90
2
43
0.0
10
15.721665180583205
20
6.2392662817764055
10
18.634171859189532
20
9.683369203029953
0
ARC
5
112
100
AcDbEntity
8
0
100
AcDbCircle
10
0
20
0
30
0
40
21
210
0
220
-0
230
1
100
AcDbArc
50
27.458939030631541
51
32.541060969368303
0
LWPOLYLINE
5
113
100
AcDbEntity
8
0
100
AcDbPolyline
90
2
43
0.0
10
17.703129653642584
20
11.295981607028258
10
13.264195691285648
20
10.495728295290117
0
LINE
5
114
100
AcDbEntity
8
0
100
AcDbLine
10
13.26419569128565
20
10.495728295290119
30
0
11
12.434171530623219
21
9.8396976740794617
31
0
0
ARC
5
115
100
AcDbEntity
8
0
100
AcDbCircle
10
11.449794583977798
20
11.085152722209678
30
0
40
1.5874999999999995
210
0
220
0
230
1
100
AcDbArc
50
224.0729680309054
51
308.32197427821865
0
ARC
5
116
100
AcDbEntity
8
0
100
AcDbCircle
10
0
20
0
30
0
40
14.3492
210
0
220
-0
230
1
100
AcDbArc
50
44.072968030905344
51
45.927031969094628
0
ARC
5
117
100
AcDbEntity
8
0
100
AcDbCircle
10
11.085152722209681
20
11.449794583977797
30
0
40
1.5875000000000004
210
0
220
0
230
1
100
AcDbArc
50
141.67802572178127
51
225.92703196909468
0
LINE
5
118
100
AcDbEntity
8
0
100
AcDbLine
10
9.839697674079467
20
12.434171530623219
30
0
11
10.495728295290119
21
13.264195691285646
31
0
0
LWPOLYLINE
5
119
100
AcDbEntity
8
0
100
AcDbPolyline
90
2
43
0.0
10
10.495728295290117
20
13.264195691285646
10
11.295981607028263
20
17.703129653642584
0
ARC
5
120
100
AcDbEntity
8
0
100
AcDbCircle
10
0
20
0
30
0
40
21.000000000000007
210
0
220
-0
230
1
100
AcDbArc
50
57.458939030631548
51
62.541060969368317
0
LWPOLYLINE
5
121
100
AcDbEntity
8
0
100
AcDbPolyline
90
2
43
0.0
10
9.683369203029958
20
18.634171859189532
10
6.239266281776407
20
15.721665180583209
0
LINE
5
122
100
AcDbEntity
8
0
100
AcDbLine
10
6.2392662817764073
20
15.721665180583209
30
0
11
5.8484595834932138
21
14.738513916623077
31
0
0
ARC
5
123
100
AcDbEntity
8
0
100
AcDbCircle
10
4.3732366167334149
20
15.324921154252705
30
0
40
1.5874999999999999
210
0
220
0
230
1
100
AcDbArc
50
254.07296803090532
51
338.32197427821859
0
ARC
5
124
100
AcDbEntity
8
0
100
AcDbCircle
10
0
20
0
30
0
40
14.349199999999998
210
0
220
-0
230
1
100
AcDbArc
50
74.072968030905344
51
75.927031969094656
0
ARC
5
125
100
AcDbEntity
8
0
100
AcDbCircle
10
3.8751265702749111
20
15.458389338943089
30
0
40
1.5875000000000004
210
0
220
0
230
1
100
AcDbArc
50
171.67802572178141
51
255.92703196909446
0
LINE
5
126
100
AcDbEntity
8
0
100
AcDbLine
10
2.3043423859998629
20
15.688157257572675
30
0
11
2.4574694892975604
21
16.734994577066523
31
0
0
LWPOLYLINE
5
127
100
AcDbEntity
8
0
100
AcDbPolyline
90
2
43
0.0
10
2.45746948929756
20
16.734994577066523
10
0.9310422055469526
20
20.979350810058214
0
ARC
5
128
100
AcDbEntity
8
0
100
AcDbCircle
10
0
20
0
30
0
40
21
210
0
220
-0
230
1
100
AcDbArc
50
87.458939030631555
51
92.541060969368317
0
LWPOLYLINE
5
129
100
AcDbEntity
8
0
100
AcDbPolyline
90
2
43
0.0
10
-0.9310422055469492
20
20.97935081005822
10
-2.4574694892975564
20
16.734994577066523
0
LINE
5
130
100
AcDbEntity
8
0
100
AcDbLine
10
-2.4574694892975564
20
16.734994577066523
30
0
11
-2.3043423859998584
21
15.688157257572676
31
0
0
ARC
5
131
100
AcDbEntity
8
0
100
AcDbCircle
10
-3.8751265702749054
20
15.458389338943091
30
0
40
1.5875000000000006
210
-0
220
0
230
1
100
AcDbArc
50
-75.927031969094713
51
8.3219742782186561
0
ARC
5
132
100
AcDbEntity
8
0
100
AcDbCircle
10
0
20
0
30
0
40
14.349199999999998
210
0
220
0
230
1
100
AcDbArc
50
104.07296803090534
51
105.92703196909463
0
ARC
5
133
100
AcDbEntity
8
0
100
AcDbCircle
10
-4.373236616733406
20
15.324921154252706
30
0
40
1.5875000000000006
210
0
220
0
230
1
100
AcDbArc
50
201.67802572178135
51
285.92703196909474
0
LINE
5
134
100
AcDbEntity
8
0
100
AcDbLine
10
-5.8484595834932085
20
14.738513916623079
30
0
11
-6.2392662817764037
21
15.721665180583209
31
0
0
LWPOLYLINE
5
135
100
AcDbEntity
8
0
100
AcDbPolyline
90
2
43
0.0
10
-6.239266281776403
20
15.721665180583209
10
-9.68336920302995
20
18.634171859189536
0
ARC
5
136
100
AcDbEntity
8
0
100
AcDbCircle
10
0
20
0
30
0
40
21
210
0
220
0
230
1
100
AcDbArc
50
117.45893903063154
51
122.54106096936832
0
LWPOLYLINE
5
137
100
AcDbEntity
8
0
100
AcDbPolyline
90
2
43
0.0
10
-11.295981607028255
20
17.703129653642584
10
-10.495728295290116
20
13.264195691285648
0
LINE
5
138
100
AcDbEntity
8
0
100
AcDbLine
10
-10.495728295290117
20
13.26419569128565
30
0
11
-9.8396976740794599
21
12.434171530623221
31
0
0
ARC
5
139
100
AcDbEntity
8
0
100
AcDbCircle
10
-11.085152722209674
20
11.449794583977802
30
0
40
1.5875000000000004
210
-0
220
0
230
1
100
AcDbArc
50
-45.927031969094742
51
38.321974278218626
0
ARC
5
140
100
AcDbEntity
8
0
100
AcDbCircle
10
0
20
0
30
0
40
14.349199999999998
210
0
220
0
230
1
100
AcDbArc
50
134.07296803090534
51
135.92703196909463
0
ARC
5
141
100
AcDbEntity
8
0
100
AcDbCircle
10
-11.449794583977795
20
11.085152722209683
30
0
40
1.5875000000000004
210
0
220
0
230
1
100
AcDbArc
50
231.67802572178127
51
315.9270319690948
0
LINE
5
142
100
AcDbEntity
8
0
100
AcDbLine
10
-12.434171530623217
20
9.8396976740794688
30
0
11
-13.264195691285645
21
10.495728295290123
31
0
0
LWPOLYLINE
5
143
100
AcDbEntity
8
0
100
AcDbPolyline
90
2
43
0.0
10
-13.264195691285645
20
10.495728295290123
10
-17.703129653642577
20
11.295981607028267
0
ARC
5
144
100
AcDbEntity
8
0
100
AcDbCircle
10
0
20
0
30
0
40
21.000000000000007
210
0
220
0
230
1
100
AcDbArc
50
147.45893903063154
51
152.54106096936835
0
LWPOLYLINE
5
145
100
AcDbEntity
8
0
100
AcDbPolyline
90
2
43
0.0
10
-18.63417185918953
20
9.683369203029965
10
-15.721665180583203
20
6.239266281776412
0
LINE
5
146
100
AcDbEntity
8
0
100
AcDbLine
10
-15.721665180583205
20
6.2392662817764126
30
0
11
-14.738513916623077
21
5.8484595834932218
31
0
0
ARC
5
147
100
AcDbEntity
8
0
100
AcDbCircle
10
-15.324921154252705
20
4.3732366167334193
30
0
40
1.5875000000000004
210
-0
220
0
230
1
100
AcDbArc
50
-15.927031969094724
51
68.321974278218647
0
ARC
5
148
100
AcDbEntity
8
0
100
AcDbCircle
10
0
20
0
30
0
40
14.3492
210
0
220
0
230
1
100
AcDbArc
50
164.07296803090537
51
165.92703196909463
0
ARC
5
149
100
AcDbEntity
8
0
100
AcDbCircle
10
-15.458389338943091
20
3.875126570274908
30
0
40
1.5874999999999999
210
0
220
0
230
1
100
AcDbArc
50
261.67802572178135
51
345.92703196909457
0
LINE
5
150
100
AcDbEntity
8
0
100
AcDbLine
10
-15.688157257572676
20
2.3043423859998602
30
0
11
-16.734994577066523
21
2.4574694892975604
31
0
0
LWPOLYLINE
5
151
100
AcDbEntity
8
0
100
AcDbPolyline
90
2
43
0.0
10
-16.734994577066523
20
2.45746948929756
10
-20.97935081005821
20
0.9310422055469537
0
ARC
5
152
100
AcDbEntity
8
0
100
AcDbCircle
10
0
20
0
30
0
40
20.999999999999996
210
0
220
0
230
1
100
AcDbArc
50
177.45893903063157
51
182.54106096936826
0
LWPOLYLINE
5
153
100
AcDbEntity
8
0
100
AcDbPolyline
90
2
43
0.0
10
-20.979350810058214
20
-0.931042205546948
10
-16.734994577066523
20
-2.4574694892975555
0
LINE
5
154
100
AcDbEntity
8
0
100
AcDbLine
10
-16.734994577066523
20
-2.4574694892975555
30
0
11
-15.688157257572676
21
-2.3043423859998575
31
0
0
ARC
5
155
100
AcDbEntity
8
0
100
AcDbCircle
10
-15.458389338943091
20
-3.875126570274908
30
0
40
1.5874999999999986
210
0
220
-0
230
1
100
AcDbArc
50
14.072968030905319
51
98.321974278218633
0
ARC
5
156
100
AcDbEntity
8
0
100
AcDbCircle
10
0
20
0
30
0
40
14.3492
210
0
220
0
230
1
100
AcDbArc
50
194.07296803090534
51
195.9270319690946
0
ARC
5
157
100
AcDbEntity
8
0
100
AcDbCircle
10
-15.324921154252706
20
-4.3732366167334051
30
0
40
1.5875000000000006
210
-0
220
0
230
1
100
AcDbArc
50
-68.321974278218676
51
15.927031969094731
0
LINE
5
158
100
AcDbEntity
8
0
100
AcDbLine
10
-14.738513916623079
20
-5.8484595834932076
30
0
11
-15.721665180583209
21
-6.239266281776402
31
0
0
LWPOLYLINE
5
159
100
AcDbEntity
8
0
100
AcDbPolyline
90
2
43
0.0
10
-15.721665180583209
20
-6.239266281776402
10
-18.63417185918954
20
-9.68336920302995
0
ARC
5
160
100
AcDbEntity
8
0
100
AcDbCircle
10
0
20
0
30
0
40
21.000000000000007
210
0
220
0
230
1
100
AcDbArc
50
207.45893903063154
51
212.54106096936832
0
LWPOLYLINE
5
161
100
AcDbEntity
8
0
100
AcDbPolyline
90
2
43
0.0
10
-17.703129653642584
20
-11.295981607028253
10
-13.264195691285652
20
-10.495728295290116
0
LINE
5
162
100
AcDbEntity
8
0
100
AcDbLine
10
-13.264195691285652
20
-10.495728295290117
30
0
11
-12.434171530623221
21
-9.8396976740794599
31
0
0
ARC
5
163
100
AcDbEntity
8
0
100
AcDbCircle
10
-11.449794583977798
20
-11.085152722209678
30
0
40
1.5874999999999995
210
0
220
-0
230
1
100
AcDbArc
50
44.072968030905407
51
128.32197427821865
0
ARC
5
164
100
AcDbEntity
8
0
100
AcDbCircle
10
0
20
0
30
0
40
14.3492
210
0
220
0
230
1
100
AcDbArc
50
224.07296803090534
51
225.92703196909457
0
ARC
5
165
100
AcDbEntity
8
0
100
AcDbCircle
10
-11.085152722209685
20
-11.449794583977791
30
0
40
1.5875000000000004
210
-0
220
0
230
1
100
AcDbArc
50
-38.321974278218669
51
45.927031969094728
0
LINE
5
166
100
AcDbEntity
8
0
100
AcDbLine
10
-9.8396976740794706
20
-12.434171530623212
30
0
11
-10.495728295290125
21
-13.264195691285645
31
0
0
LWPOLYLINE
5
167
100
AcDbEntity
8
0
100
AcDbPolyline
90
2
43
0.0
10
-10.495728295290125
20
-13.264195691285645
10
-11.295981607028269
20
-17.703129653642577
0
ARC
5
168
100
AcDbEntity
8
0
100
AcDbCircle
10
0
20
0
30
0
40
21.000000000000007
210
0
220
0
230
1
100
AcDbArc
50
237.45893903063154
51
242.54106096936832
0
LWPOLYLINE
5
169
100
AcDbEntity
8
0
100
AcDbPolyline
90
2
43
0.0
10
-9.683369203029967
20
-18.63417185918953
10
-6.239266281776414
20
-15.721665180583203
0
LINE
5
170
100
AcDbEntity
8
0
100
AcDbLine
10
-6.2392662817764144
20
-15.721665180583205
30
0
11
-5.8484595834932227
21
-14.738513916623077
31
0
0
ARC
5
171
100
AcDbEntity
8
0
100
AcDbCircle
10
-4.3732366167334193
20
-15.324921154252705
30
0
40
1.5875000000000004
210
0
220
-0
230
1
100
AcDbArc
50
74.072968030905287
51
158.32197427821868
0
ARC
5
172
100
AcDbEntity
8
0
100
AcDbCircle
10
0
20
0
30
0
40
14.3492
210
0
220
0
230
1
100
AcDbArc
50
254.07296803090532
51
255.92703196909466
0
ARC
5
173
100
AcDbEntity
8
0
100
AcDbCircle
10
-3.875126570274912
20
-15.458389338943089
30
0
40
1.5874999999999997
210
-0
220
0
230
1
100
AcDbArc
50
-8.3219742782185993
51
75.927031969094614
0
LINE
5
174
100
AcDbEntity
8
0
100
AcDbLine
10
-2.3043423859998642
20
-15.688157257572675
30
0
11
-2.4574694892975621
21
-16.734994577066526
31
0
0
LWPOLYLINE
5
175
100
AcDbEntity
8
0
100
AcDbPolyline
90
2
43
0.0
10
-2.457469489297562
20
-16.734994577066526
10
-0.9310422055469548
20
-20.979350810058214
0
ARC
5
176
100
AcDbEntity
8
0
100
AcDbCircle
10
0
20
0
30
0
40
21
210
0
220
0
230
1
100
AcDbArc
50
267.45893903063154
51
272.54106096936829
0
LWPOLYLINE
5
177
100
AcDbEntity
8
0
100
AcDbPolyline
90
2
43
0.0
10
0.9310422055469458
20
-20.979350810058214
10
2.457469489297554
20
-16.734994577066526
0
LINE
5
178
100
AcDbEntity
8
0
100
AcDbLine
10
2.4574694892975542
20
-16.734994577066526
30
0
11
2.3043423859998562
21
-15.688157257572676
31
0
0
ARC
5
179
100
AcDbEntity
8
0
100
AcDbCircle
10
3.8751265702749036
20
-15.458389338943091
30
0
40
1.5875000000000006
210
0
220
0
230
1
100
AcDbArc
50
104.07296803090532
51
188.32197427821859
0
ARC
5
180
100
AcDbEntity
8
0
100
AcDbCircle
10
0
20
0
30
0
40
14.349199999999998
210
-0
220
0
230
1
100
AcDbArc
50
284.07296803090537
51
285.92703196909463
0
ARC
5
181
100
AcDbEntity
8
0
100
AcDbCircle
10
4.3732366167334007
20
-15.324921154252708
30
0
40
1.5874999999999997
210
0
220
-0
230
1
100
AcDbArc
50
21.678025721781211
51
105.92703196909468
0
LINE
5
182
100
AcDbEntity
8
0
100
AcDbLine
10
5.8484595834932032
20
-14.738513916623084
30
0
11
6.2392662817763949
21
-15.72166518058321
31
0
0
LWPOLYLINE
5
183
100
AcDbEntity
8
0
100
AcDbPolyline
90
2
43
0.0
10
6.239266281776394
20
-15.72166518058321
10
9.68336920302994
20
-18.634171859189543
0
ARC
5
184
100
AcDbEntity
8
0
100
AcDbCircle
10
0
20
0
30
0
40
21.000000000000007
210
-0
220
0
230
1
100
AcDbArc
50
297.45893903063148
51
302.54106096936829
0
LWPOLYLINE
5
185
100
AcDbEntity
8
0
100
AcDbPolyline
90
2
43
0.0
10
11.295981607028246
20
-17.70312965364259
10
10.495728295290109
20
-13.264195691285655
0
LINE
5
186
100
AcDbEntity
8
0
100
AcDbLine
10
10.49572829529011
20
-13.264195691285657
30
0
11
9.8396976740794546
21
-12.434171530623228
31
0
0
ARC
5
187
100
AcDbEntity
8
0
100
AcDbCircle
10
11.085152722209667
20
-11.449794583977809
30
0
40
1.5875000000000004
210
0
220
0
230
1
100
AcDbArc
50
134.07296803090514
51
218.32197427821868
0
ARC
5
188
100
AcDbEntity
8
0
100
AcDbCircle
10
0
20
0
30
0
40
14.349199999999998
210
-0
220
0
230
1
100
AcDbArc
50
314.07296803090532
51
315.92703196909463
0
ARC
5
189
100
AcDbEntity
8
0
100
AcDbCircle
10
11.449794583977793
20
-11.085152722209685
30
0
40
1.5875000000000004
210
0
220
-0
230
1
100
AcDbArc
50
51.678025721781317
51
135.9270319690948
0
LINE
5
190
100
AcDbEntity
8
0
100
AcDbLine
10
12.434171530623214
20
-9.8396976740794706
30
0
11
13.264195691285643
21
-10.495728295290125
31
0
0
LWPOLYLINE
5
191
100
AcDbEntity
8
0
100
AcDbPolyline
90
2
43
0.0
10
13.264195691285643
20
-10.495728295290125
10
17.703129653642574
20
-11.295981607028269
0
ARC
5
192
100
AcDbEntity
8
0
100
AcDbCircle
10
0
20
0
30
0
40
21
210
-0
220
0
230
1
100
AcDbArc
50
327.45893903063154
51
332.54106096936835
0
LWPOLYLINE
5
193
100
AcDbEntity
8
0
100
AcDbPolyline
90
2
43
0.0
10
18.634171859189525
20
-9.683369203029967
10
15.721665180583203
20
-6.239266281776413
0
LINE
5
194
100
AcDbEntity
8
0
100
AcDbLine
10
15.721665180583205
20
-6.2392662817764135
30
0
11
14.738513916623077
21
-5.8484595834932218
31
0
0
ARC
5
195
100
AcDbEntity
8
0
100
AcDbCircle
10
15.324921154252705
20
-4.3732366167334185
30
0
40
1.587499999999999
210
0
220
0
230
1
100
AcDbArc
50
164.07296803090546
51
248.32197427821868
0
LINE
5
196
100
AcDbEntity
8
0
100
AcDbLine
10
0
20
0
30
0
11
1.6000000000000003
21
-1.5407439555097887e-32
31
0
0
LINE
5
197
100
AcDbEntity
8
0
100
AcDbLine
10
0
20
0
30
0
11
-1.6000000000000003
21
5.7777898331617076e-33
31
0
0
LWPOLYLINE
5
198
100
AcDbEntity
8
0
100
AcDbPolyline
90
6
70
1
43
0.0
10
-1.6000000000000003
20
5.7777898331617076e-33
10
-1.600000000000001
20
2.0493901531919203
42
-0.34413115425505025
10
1.6000000000000012
20
2.0493901531919203
10
1.6000000000000003
20
-1.5407439555097887e-32
10
1.6000000000000014
20
-2.0493901531919199
42
-0.34413115425505025
10
-1.6000000000000003
20
-2.0493901531919203
0
ENDSEC
0
SECTION
2
OBJECTS
0
DICTIONARY
5
C
100
AcDbDictionary
3
ACAD_GROUP
350
D
3
ACAD_MLINESTYLE
350
17
0
DICTIONARY
5
D
100
AcDbDictionary
0
DICTIONARY
5
1A
330
C
100
AcDbDictionary
0
DICTIONARY
5
17
100
AcDbDictionary
0
ENDSEC
0
EOF
