0
SECTION
2
HEADER
9
$INSUNITS
70
4
9
$ACADVER
1
AC1014
9
$HANDSEED
5
FFFF
0
ENDSEC
0
SECTION
2
TABLES
0
TABLE
2
VPORT
5
8
100
AcDbSymbolTable
0
ENDTAB
0
TABLE
2
LTYPE
5
5
100
AcDbSymbolTable
0
LTYPE
5
14
100
AcDbSymbolTableRecord
100
AcDbLinetypeTableRecord
2
BYBLOCK
70
0
0
LTYPE
5
15
100
AcDbSymbolTableRecord
100
AcDbLinetypeTableRecord
2
BYLAYER
70
0
0
ENDTAB
0
TABLE
2
LAYER
5
2
100
AcDbSymbolTable
70
2
0
LAYER
5
50
100
AcDbSymbolTableRecord
100
AcDbLayerTableRecord
2
0
70
0
6
CONTINUOUS
0
ENDTAB
0
TABLE
2
STYLE
5
3
100
AcDbSymbolTable
70
1
0
STYLE
5
11
100
AcDbSymbolTableRecord
100
AcDbTextStyleTableRecord
2
STANDARD
70
0
0
ENDTAB
0
TABLE
2
VIEW
5
6
100
AcDbSymbolTable
70
0
0
ENDTAB
0
TABLE
2
UCS
5
7
100
AcDbSymbolTable
70
0
0
ENDTAB
0
TABLE
2
APPID
5
9
100
AcDbSymbolTable
70
2
0
APPID
5
12
100
AcDbSymbolTableRecord
100
AcDbRegAppTableRecord
2
ACAD
70
0
0
ENDTAB
0
TABLE
2
DIMSTYLE
5
A
100
AcDbSymbolTable
70
1
0
ENDTAB
0
TABLE
2
BLOCK_RECORD
5
1
100
AcDbSymbolTable
70
1
0
BLOCK_RECORD
5
1F
100
AcDbSymbolTableRecord
100
AcDbBlockTableRecord
2
*MODEL_SPACE
0
BLOCK_RECORD
5
1B
100
AcDbSymbolTableRecord
100
AcDbBlockTableRecord
2
*PAPER_SPACE
0
ENDTAB
0
ENDSEC
0
SECTION
2
BLOCKS
0
BLOCK
5
20
100
AcDbEntity
100
AcDbBlockBegin
2
*MODEL_SPACE
0
ENDBLK
5
21
100
AcDbEntity
100
AcDbBlockEnd
0
BLOCK
5
1C
100
AcDbEntity
100
AcDbBlockBegin
2
*PAPER_SPACE
0
ENDBLK
5
1D
100
AcDbEntity
100
AcDbBlockEnd
0
ENDSEC
0
SECTION
2
ENTITIES
0
LWPOLYLINE
5
100
100
AcDbEntity
8
0
100
AcDbPolyline
90
4
70
1
43
0.0
10
0
20
0
10
60
20
0
10
60
20
40
10
0
20
40
0
LWPOLYLINE
5
101
100
AcDbEntity
8
0
100
AcDbPolyline
90
4
70
1
43
0.0
10
6.7898012363398106
20
15.351656856303752
10
53.706855896744806
20
15.401926590875291
10
53.696139393420509
20
25.403705524436226
10
6.7790847330155373
20
25.35343578986469
0
LINE
5
102
100
AcDbEntity
8
0
100
AcDbLine
10
13.88063314555759
20
21.761923560645194
30
0
11
13.875275849998429
21
26.761920690582798
31
0
0
LINE
5
103
100
AcDbEntity
8
0
100
AcDbLine
10
13.875275849998427
20
26.761920690582805
30
0
11
15.761359443151166
21
26.763941553194357
31
0
0
SPLINE
5
104
100
AcDbEntity
8
0
100
AcDbSpline
70
0
71
2
72
6
73
3
74
0
42
0.000000001
43
0.0000000001
44
0.0000000001
40
0
40
0
40
0
40
1
40
1
40
1
10
15.761359443151168
20
26.763941553194357
30
0
10
16.259313049073572
20
26.764475090428949
30
0
10
16.521983316382922
20
26.717007520726945
30
0
0
SPLINE
5
105
100
AcDbEntity
8
0
100
AcDbSpline
70
0
71
2
72
6
73
3
74
0
42
0.000000001
43
0.0000000001
44
0.0000000001
40
0
40
0
40
0
40
1
40
1
40
1
10
16.521983316382922
20
26.717007520726945
30
0
10
16.89039724358868
20
26.656010634147442
30
0
10
17.139559783714237
20
26.48404034508664
30
0
0
SPLINE
5
106
100
AcDbEntity
8
0
100
AcDbSpline
70
0
71
2
72
6
73
3
74
0
42
0.000000001
43
0.0000000001
44
0.0000000001
40
0
40
0
40
0
40
1
40
1
40
1
10
17.139559783714237
20
26.48404034508664
30
0
10
17.388719939974692
20
26.312069755448228
30
0
10
17.540826091230027
20
26.001864015005157
30
0
0
SPLINE
5
107
100
AcDbEntity
8
0
100
AcDbSpline
70
0
71
2
72
6
73
3
74
0
42
0.000000001
43
0.0000000001
44
0.0000000001
40
0
40
0
40
0
40
1
40
1
40
1
10
17.540826091230027
20
26.001864015005157
30
0
10
17.692932242166044
20
25.691658572585141
30
0
10
17.693330567625353
20
25.319898954074556
30
0
0
SPLINE
5
108
100
AcDbEntity
8
0
100
AcDbSpline
70
0
71
2
72
6
73
3
74
0
42
0.000000001
43
0.0000000001
44
0.0000000001
40
0
40
0
40
0
40
1
40
1
40
1
10
17.693330567625353
20
25.319898954074556
30
0
10
17.694013933494439
20
24.682109355498053
30
0
10
17.288621498733686
20
24.239996722923941
30
0
0
SPLINE
5
109
100
AcDbEntity
8
0
100
AcDbSpline
70
0
71
2
72
6
73
3
74
0
42
0.000000001
43
0.0000000001
44
0.0000000001
40
0
40
0
40
0
40
1
40
1
40
1
10
17.288621498733686
20
24.239996722923941
30
0
10
16.883229063972927
20
23.797884090349829
30
0
10
15.822519719525571
20
23.796747583005349
30
0
0
LINE
5
110
100
AcDbEntity
8
0
100
AcDbLine
10
15.822519719525571
20
23.796747583005349
30
0
11
14.540119370739895
21
23.795373542677911
31
0
0
LINE
5
111
100
AcDbEntity
8
0
100
AcDbLine
10
14.540119370739895
20
23.795373542677911
30
0
11
14.542297370894534
21
21.762632507215351
31
0
0
LINE
5
112
100
AcDbEntity
8
0
100
AcDbLine
10
14.542297370894538
20
21.762632507215351
30
0
11
13.88063314555759
21
21.761923560645201
31
0
0
LINE
5
113
100
AcDbEntity
8
0
100
AcDbLine
10
14.539487165953624
20
24.385414185756584
30
0
11
15.8321192421883
21
24.386799188967917
31
0
0
SPLINE
5
114
100
AcDbEntity
8
0
100
AcDbSpline
70
0
71
2
72
6
73
3
74
0
42
0.000000001
43
0.0000000001
44
0.0000000001
40
0
40
0
40
0
40
1
40
1
40
1
10
15.832119242188302
20
24.38679918896792
30
0
10
16.473319416581141
20
24.387486209131637
30
0
10
16.742503869026265
20
24.626519681005878
30
0
0
SPLINE
5
115
100
AcDbEntity
8
0
100
AcDbSpline
70
0
71
2
72
6
73
3
74
0
42
0.000000001
43
0.0000000001
44
0.0000000001
40
0
40
0
40
0
40
1
40
1
40
1
10
16.742503869026265
20
24.626519681005878
30
0
10
17.011689513563599
20
24.865553154157393
30
0
10
17.011225409523625
20
25.298704329454193
30
0
0
SPLINE
5
116
100
AcDbEntity
8
0
100
AcDbSpline
70
0
71
2
72
6
73
3
74
0
42
0.000000001
43
0.0000000001
44
0.0000000001
40
0
40
0
40
0
40
1
40
1
40
1
10
17.011225409523625
20
25.298704329454193
30
0
10
17.010889208350349
20
25.612482966994893
30
0
10
16.852053899799184
20
25.835709926116593
30
0
0
SPLINE
5
117
100
AcDbEntity
8
0
100
AcDbSpline
70
0
71
2
72
6
73
3
74
0
42
0.000000001
43
0.0000000001
44
0.0000000001
40
0
40
0
40
0
40
1
40
1
40
1
10
16.852053899799184
20
25.835709926116593
30
0
10
16.693220975432443
20
26.058936887792854
30
0
10
16.433935703557676
20
26.130282440526877
30
0
0
SPLINE
5
118
100
AcDbEntity
8
0
100
AcDbSpline
70
0
71
2
72
6
73
3
74
0
42
0.000000001
43
0.0000000001
44
0.0000000001
40
0
40
0
40
0
40
1
40
1
40
1
10
16.433935703557676
20
26.130282440526877
30
0
10
16.266766405492511
20
26.17444175593954
30
0
10
15.816561457044884
20
26.173959379468442
30
0
0
LINE
5
119
100
AcDbEntity
8
0
100
AcDbLine
10
15.816561457044884
20
26.173959379468442
30
0
11
14.537572280121648
21
26.172588994074278
31
0
0
LINE
5
120
100
AcDbEntity
8
0
100
AcDbLine
10
14.537572280121648
20
26.172588994074282
30
0
11
14.539487165953624
21
24.385414185756588
31
0
0
LINE
5
121
100
AcDbEntity
8
0
100
AcDbLine
10
18.454300549854118
20
21.76682406107296
30
0
11
18.450419616788029
21
25.388922931229224
31
0
0
LINE
5
122
100
AcDbEntity
8
0
100
AcDbLine
10
18.450419616788025
20
25.388922931229224
30
0
11
19.002942435771764
21
25.389514937177935
31
0
0
LINE
5
123
100
AcDbEntity
8
0
100
AcDbLine
10
19.002942435771764
20
25.389514937177935
30
0
11
19.003530788064488
21
24.840402097964422
31
0
0
SPLINE
5
124
100
AcDbEntity
8
0
100
AcDbSpline
70
0
71
2
72
6
73
3
74
0
42
0.000000001
43
0.0000000001
44
0.0000000001
40
0
40
0
40
0
40
1
40
1
40
1
10
19.003530788064488
20
24.840402097964429
30
0
10
19.214578314088861
20
25.226030889139732
30
0
10
19.393504967515575
20
25.349005856373573
30
0
0
SPLINE
5
125
100
AcDbEntity
8
0
100
AcDbSpline
70
0
71
2
72
6
73
3
74
0
42
0.000000001
43
0.0000000001
44
0.0000000001
40
0
40
0
40
0
40
1
40
1
40
1
10
19.393504967515575
20
25.349005856373573
30
0
10
19.572431621261607
20
25.471980525584364
30
0
10
19.787302666059471
20
25.472210751255332
30
0
0
SPLINE
5
126
100
AcDbEntity
8
0
100
AcDbSpline
70
0
71
2
72
6
73
3
74
0
42
0.000000001
43
0.0000000001
44
0.0000000001
40
0
40
0
40
0
40
1
40
1
40
1
10
19.787302666059471
20
25.472210751255332
30
0
10
20.097671025806889
20
25.472543298453296
30
0
10
20.418483065923837
20
25.275069834911168
30
0
0
LINE
5
127
100
AcDbEntity
8
0
100
AcDbLine
10
20.418483065923837
20
25.275069834911168
30
0
11
20.207632875641465
21
24.705266373377214
31
0
0
SPLINE
5
128
100
AcDbEntity
8
0
100
AcDbSpline
70
0
71
2
72
6
73
3
74
0
42
0.000000001
43
0.0000000001
44
0.0000000001
40
0
40
0
40
0
40
1
40
1
40
1
10
20.207632875641465
20
24.705266373377214
30
0
10
19.982388775122256
20
24.838040325144107
30
0
10
19.757287194967603
20
24.837799137866522
30
0
0
SPLINE
5
129
100
AcDbEntity
8
0
100
AcDbSpline
70
0
71
2
72
6
73
3
74
0
42
0.000000001
43
0.0000000001
44
0.0000000001
40
0
40
0
40
0
40
1
40
1
40
1
10
19.757287194967603
20
24.837799137866522
30
0
10
19.556058453435071
20
24.837583529374079
30
0
10
19.395888735896985
20
24.716333949307526
30
0
0
SPLINE
5
130
100
AcDbEntity
8
0
100
AcDbSpline
70
0
71
2
72
6
73
3
74
0
42
0.000000001
43
0.0000000001
44
0.0000000001
40
0
40
0
40
0
40
1
40
1
40
1
10
19.395888735896985
20
24.716333949307526
30
0
10
19.235717826266686
20
24.59508436796369
30
0
10
19.16773534256081
20
24.380141130065056
30
0
0
SPLINE
5
131
100
AcDbEntity
8
0
100
AcDbSpline
70
0
71
2
72
6
73
3
74
0
42
0.000000001
43
0.0000000001
44
0.0000000001
40
0
40
0
40
0
40
1
40
1
40
1
10
19.16773534256081
20
24.380141130065056
30
0
10
19.065767694969036
20
24.052609963096657
30
0
10
19.066184292220825
20
23.663797167481352
30
0
0
LINE
5
132
100
AcDbEntity
8
0
100
AcDbLine
10
19.066184292220825
20
23.663797167481352
30
0
11
19.068216117716286
21
21.767481846879612
31
0
0
LINE
5
133
100
AcDbEntity
8
0
100
AcDbLine
10
19.068216117716286
20
21.767481846879612
30
0
11
18.454300549854118
21
21.766824061072953
31
0
0
SPLINE
5
134
100
AcDbEntity
8
0
100
AcDbSpline
70
0
71
2
72
6
73
3
74
0
42
0.000000001
43
0.0000000001
44
0.0000000001
40
0
40
0
40
0
40
1
40
1
40
1
10
20.556724701041901
20
23.58012823808961
30
0
10
20.55564666400814
20
24.586266879360362
30
0
10
21.114471715207124
20
25.0711769005093
30
0
0
SPLINE
5
135
100
AcDbEntity
8
0
100
AcDbSpline
70
0
71
2
72
6
73
3
74
0
42
0.000000001
43
0.0000000001
44
0.0000000001
40
0
40
0
40
0
40
1
40
1
40
1
10
21.114471715207124
20
25.0711769005093
30
0
10
21.581297731940676
20
25.474132944718612
30
0
10
22.253194280772732
20
25.474852854811303
30
0
0
SPLINE
5
136
100
AcDbEntity
8
0
100
AcDbSpline
70
0
71
2
72
6
73
3
74
0
42
0.000000001
43
0.0000000001
44
0.0000000001
40
0
40
0
40
0
40
1
40
1
40
1
10
22.253194280772732
20
25.474852854811303
30
0
10
23.000123497564118
20
25.47565315938591
30
0
10
23.474727473631557
20
24.986734546222607
30
0
0
SPLINE
5
137
100
AcDbEntity
8
0
100
AcDbSpline
70
0
71
2
72
6
73
3
74
0
42
0.000000001
43
0.0000000001
44
0.0000000001
40
0
40
0
40
0
40
1
40
1
40
1
10
23.474727473631557
20
24.986734546222607
30
0
10
23.949330257926107
20
24.497815633758975
30
0
10
23.950254811711421
20
23.634923858981711
30
0
0
SPLINE
5
138
100
AcDbEntity
8
0
100
AcDbSpline
70
0
71
2
72
6
73
3
74
0
42
0.000000001
43
0.0000000001
44
0.0000000001
40
0
40
0
40
0
40
1
40
1
40
1
10
23.950254811711421
20
23.634923858981711
30
0
10
23.95100395616117
20
22.935742703618992
30
0
10
23.741679950509127
20
22.534768150333417
30
0
0
SPLINE
5
139
100
AcDbEntity
8
0
100
AcDbSpline
70
0
71
2
72
6
73
3
74
0
42
0.000000001
43
0.0000000001
44
0.0000000001
40
0
40
0
40
0
40
1
40
1
40
1
10
23.741679950509127
20
22.534768150333417
30
0
10
23.532354753403517
20
22.133792999724456
30
0
10
23.131841879687215
20
21.911672309441443
30
0
0
SPLINE
5
140
100
AcDbEntity
8
0
100
AcDbSpline
70
0
71
2
72
6
73
3
74
0
42
0.000000001
43
0.0000000001
44
0.0000000001
40
0
40
0
40
0
40
1
40
1
40
1
10
23.131841879687215
20
21.911672309441443
30
0
10
22.731329006609549
20
21.689551023112319
30
0
10
22.257250623493697
20
21.689043067217433
30
0
0
SPLINE
5
141
100
AcDbEntity
8
0
100
AcDbSpline
70
0
71
2
72
6
73
3
74
0
42
0.000000001
43
0.0000000001
44
0.0000000001
40
0
40
0
40
0
40
1
40
1
40
1
10
22.257250623493697
20
21.689043067217433
30
0
10
21.496677911344761
20
21.688228144187018
30
0
10
21.027192221875922
20
22.17544724954579
30
0
0
SPLINE
5
142
100
AcDbEntity
8
0
100
AcDbSpline
70
0
71
2
72
6
73
3
74
0
42
0.000000001
43
0.0000000001
44
0.0000000001
40
0
40
0
40
0
40
1
40
1
40
1
10
21.027192221875922
20
22.17544724954579
30
0
10
20.557707724499295
20
22.662666356181845
30
0
10
20.556724701041901
20
23.58012823808961
30
0
0
SPLINE
5
143
100
AcDbEntity
8
0
100
AcDbSpline
70
0
71
2
72
6
73
3
74
0
42
0.000000001
43
0.0000000001
44
0.0000000001
40
0
40
0
40
0
40
1
40
1
40
1
10
21.187691955893531
20
23.58080429409215
30
0
10
21.188437445729331
20
22.885034012568816
30
0
10
21.492355571774322
20
22.539179249312483
30
0
0
SPLINE
5
144
100
AcDbEntity
8
0
100
AcDbSpline
70
0
71
2
72
6
73
3
74
0
42
0.000000001
43
0.0000000001
44
0.0000000001
40
0
40
0
40
0
40
1
40
1
40
1
10
21.492355571774322
20
22.539179249312483
30
0
10
21.796273697819323
20
22.193324486056156
30
0
10
22.25670977766984
20
22.193817824772502
30
0
0
SPLINE
5
145
100
AcDbEntity
8
0
100
AcDbSpline
70
0
71
2
72
6
73
3
74
0
42
0.000000001
43
0.0000000001
44
0.0000000001
40
0
40
0
40
0
40
1
40
1
40
1
10
22.25670977766984
20
22.193817824772502
30
0
10
22.713735281704032
20
22.194307509194225
30
0
10
23.016909744741216
20
22.542518037576116
30
0
0
SPLINE
5
146
100
AcDbEntity
8
0
100
AcDbSpline
70
0
71
2
72
6
73
3
74
0
42
0.000000001
43
0.0000000001
44
0.0000000001
40
0
40
0
40
0
40
1
40
1
40
1
10
23.016909744741216
20
22.542518037576116
30
0
10
23.320083015686201
20
22.890728564680728
30
0
10
23.319319254057916
20
23.603552023308787
30
0
0
SPLINE
5
147
100
AcDbEntity
8
0
100
AcDbSpline
70
0
71
2
72
6
73
3
74
0
42
0.000000001
43
0.0000000001
44
0.0000000001
40
0
40
0
40
0
40
1
40
1
40
1
10
23.319319254057916
20
23.603552023308787
30
0
10
23.318599344603861
20
24.275447976094728
30
0
10
23.012976526696804
20
24.621300912842386
30
0
0
SPLINE
5
148
100
AcDbEntity
8
0
100
AcDbSpline
70
0
71
2
72
6
73
3
74
0
42
0.000000001
43
0.0000000001
44
0.0000000001
40
0
40
0
40
0
40
1
40
1
40
1
10
23.012976526696804
20
24.621300912842386
30
0
10
22.707353708789746
20
24.967153849590037
30
0
10
22.253738780571901
20
24.966667819462952
30
0
0
SPLINE
5
149
100
AcDbEntity
8
0
100
AcDbSpline
70
0
71
2
72
6
73
3
74
0
42
0.000000001
43
0.0000000001
44
0.0000000001
40
0
40
0
40
0
40
1
40
1
40
1
10
22.253738780571901
20
24.966667819462952
30
0
10
21.793302700721373
20
24.966174480746595
30
0
10
21.490124583389552
20
24.621374528181043
30
0
0
SPLINE
5
150
100
AcDbEntity
8
0
100
AcDbSpline
70
0
71
2
72
6
73
3
74
0
42
0.000000001
43
0.0000000001
44
0.0000000001
40
0
40
0
40
0
40
1
40
1
40
1
10
21.490124583389552
20
24.621374528181043
30
0
10
21.186946465738409
20
24.276574873638538
30
0
10
21.187691955893531
20
23.58080429409215
30
0
0
LINE
5
151
100
AcDbEntity
8
0
100
AcDbLine
10
24.673383221351813
20
20.385355976853905
30
0
11
24.668014962908757
21
25.395584834240509
31
0
0
LINE
5
152
100
AcDbEntity
8
0
100
AcDbLine
10
24.668014962908753
20
25.395584834240509
30
0
11
25.22736012561737
21
25.396184150055767
31
0
0
LINE
5
153
100
AcDbEntity
8
0
100
AcDbLine
10
25.227360125617373
20
25.396184150055767
30
0
11
25.227864427856268
21
24.925515746710136
31
0
0
SPLINE
5
154
100
AcDbEntity
8
0
100
AcDbSpline
70
0
71
2
72
6
73
3
74
0
42
0.000000001
43
0.0000000001
44
0.0000000001
40
0
40
0
40
0
40
1
40
1
40
1
10
25.227864427856268
20
24.925515746710136
30
0
10
25.425385397867259
20
25.201989705168643
30
0
10
25.674214199341279
20
25.340387178531874
30
0
0
SPLINE
5
155
100
AcDbEntity
8
0
100
AcDbSpline
70
0
71
2
72
6
73
3
74
0
42
0.000000001
43
0.0000000001
44
0.0000000001
40
0
40
0
40
0
40
1
40
1
40
1
10
25.674214199341279
20
25.340387178531874
30
0
10
25.923043000176662
20
25.478785247941211
30
0
10
26.277750037628628
20
25.47916530224667
30
0
0
SPLINE
5
156
100
AcDbEntity
8
0
100
AcDbSpline
70
0
71
2
72
6
73
3
74
0
42
0.000000001
43
0.0000000001
44
0.0000000001
40
0
40
0
40
0
40
1
40
1
40
1
10
26.277750037628628
20
25.47916530224667
30
0
10
26.741595501203275
20
25.479662293980383
30
0
10
27.096558344388633
20
25.241297272773643
30
0
0
SPLINE
5
157
100
AcDbEntity
8
0
100
AcDbSpline
70
0
71
2
72
6
73
3
74
0
42
0.000000001
43
0.0000000001
44
0.0000000001
40
0
40
0
40
0
40
1
40
1
40
1
10
27.096558344388633
20
25.241297272773643
30
0
10
27.451518802750947
20
25.002932845058456
30
0
10
27.632748828799869
20
24.568269765277797
30
0
0
SPLINE
5
158
100
AcDbEntity
8
0
100
AcDbSpline
70
0
71
2
72
6
73
3
74
0
42
0.000000001
43
0.0000000001
44
0.0000000001
40
0
40
0
40
0
40
1
40
1
40
1
10
27.632748828799869
20
24.568269765277797
30
0
10
27.813978854210156
20
24.133607281543252
30
0
10
27.814534317851187
20
23.615189624676741
30
0
0
SPLINE
5
159
100
AcDbEntity
8
0
100
AcDbSpline
70
0
71
2
72
6
73
3
74
0
42
0.000000001
43
0.0000000001
44
0.0000000001
40
0
40
0
40
0
40
1
40
1
40
1
10
27.814534317851187
20
23.615189624676741
30
0
10
27.815129978733175
20
23.05925563383056
30
0
10
27.616084015545425
20
22.613953364447056
30
0
0
SPLINE
5
160
100
AcDbEntity
8
0
100
AcDbSpline
70
0
71
2
72
6
73
3
74
0
42
0.000000001
43
0.0000000001
44
0.0000000001
40
0
40
0
40
0
40
1
40
1
40
1
10
27.616084015545425
20
22.613953364447056
30
0
10
27.417040436542095
20
22.168651097618117
30
0
10
27.037007462368969
20
21.931204443906335
30
0
0
SPLINE
5
161
100
AcDbEntity
8
0
100
AcDbSpline
70
0
71
2
72
6
73
3
74
0
42
0.000000001
43
0.0000000001
44
0.0000000001
40
0
40
0
40
0
40
1
40
1
40
1
10
27.037007462368969
20
21.931204443906335
30
0
10
26.656976873018891
20
21.693757196703018
30
0
10
26.237466510872164
20
21.693307708244973
30
0
0
SPLINE
5
162
100
AcDbEntity
8
0
100
AcDbSpline
70
0
71
2
72
6
73
3
74
0
42
0.000000001
43
0.0000000001
44
0.0000000001
40
0
40
0
40
0
40
1
40
1
40
1
10
26.237466510872164
20
21.693307708244973
30
0
10
25.930509919033291
20
21.692978816618922
30
0
10
25.686509517680562
20
21.822322092033094
30
0
0
SPLINE
5
163
100
AcDbEntity
8
0
100
AcDbSpline
70
0
71
2
72
6
73
3
74
0
42
0.000000001
43
0.0000000001
44
0.0000000001
40
0
40
0
40
0
40
1
40
1
40
1
10
25.686509517680562
20
21.822322092033094
30
0
10
25.442510308739372
20
21.951665070701484
30
0
10
25.285409483763758
20
22.149314242240866
30
0
0
LINE
5
164
100
AcDbEntity
8
0
100
AcDbLine
10
25.285409483763758
20
22.149314242240866
30
0
11
25.287298789213985
21
20.386013762660561
31
0
0
LINE
5
165
100
AcDbEntity
8
0
100
AcDbLine
10
25.287298789213985
20
20.386013762660561
30
0
11
24.673383221351813
21
20.385355976853901
31
0
0
SPLINE
5
166
100
AcDbEntity
8
0
100
AcDbSpline
70
0
71
2
72
6
73
3
74
0
42
0.000000001
43
0.0000000001
44
0.0000000001
40
0
40
0
40
0
40
1
40
1
40
1
10
25.225911942421206
20
23.564667307761944
30
0
10
25.226661086870958
20
22.865486152399225
30
0
10
25.510101775255887
20
22.531547073501091
30
0
0
SPLINE
5
167
100
AcDbEntity
8
0
100
AcDbSpline
70
0
71
2
72
6
73
3
74
0
42
0.000000001
43
0.0000000001
44
0.0000000001
40
0
40
0
40
0
40
1
40
1
40
1
10
25.510101775255887
20
22.531547073501091
30
0
10
25.793543656371661
20
22.197607399834133
30
0
10
26.195998755252301
20
22.198038614264451
30
0
0
SPLINE
5
168
100
AcDbEntity
8
0
100
AcDbSpline
70
0
71
2
72
6
73
3
74
0
42
0.000000001
43
0.0000000001
44
0.0000000001
40
0
40
0
40
0
40
1
40
1
40
1
10
26.195998755252301
20
22.198038614264451
30
0
10
26.605276197857819
20
22.198477138561316
30
0
10
26.896514876639053
20
22.544969588365188
30
0
0
SPLINE
5
169
100
AcDbEntity
8
0
100
AcDbSpline
70
0
71
2
72
6
73
3
74
0
42
0.000000001
43
0.0000000001
44
0.0000000001
40
0
40
0
40
0
40
1
40
1
40
1
10
26.896514876639053
20
22.544969588365188
30
0
10
27.187753555420286
20
22.891462038169053
30
0
10
27.18697517597483
20
23.61792839610855
30
0
0
SPLINE
5
170
100
AcDbEntity
8
0
100
AcDbSpline
70
0
71
2
72
6
73
3
74
0
42
0.000000001
43
0.0000000001
44
0.0000000001
40
0
40
0
40
0
40
1
40
1
40
1
10
27.18697517597483
20
23.61792839610855
30
0
10
27.186233340752981
20
24.310287803792502
30
0
10
26.901073420706823
20
24.654457375845226
30
0
0
SPLINE
5
171
100
AcDbEntity
8
0
100
AcDbSpline
70
0
71
2
72
6
73
3
74
0
42
0.000000001
43
0.0000000001
44
0.0000000001
40
0
40
0
40
0
40
1
40
1
40
1
10
26.901073420706823
20
24.654457375845226
30
0
10
26.61591826902951
20
24.998626953007065
30
0
10
26.220283129689328
20
24.998203045888733
30
0
0
SPLINE
5
172
100
AcDbEntity
8
0
100
AcDbSpline
70
0
71
2
72
6
73
3
74
0
42
0.000000001
43
0.0000000001
44
0.0000000001
40
0
40
0
40
0
40
1
40
1
40
1
10
26.220283129689328
20
24.998203045888733
30
0
10
25.828059758257691
20
24.99778279434231
30
0
10
25.52661127843389
20
24.630815330710437
30
0
0
SPLINE
5
173
100
AcDbEntity
8
0
100
AcDbSpline
70
0
71
2
72
6
73
3
74
0
42
0.000000001
43
0.0000000001
44
0.0000000001
40
0
40
0
40
0
40
1
40
1
40
1
10
25.52661127843389
20
24.630815330710437
30
0
10
25.225162798131109
20
24.263848314113137
30
0
10
25.225911942421206
20
23.564667307761944
30
0
0
LINE
5
174
100
AcDbEntity
8
0
100
AcDbLine
10
31.034899786399865
20
22.946743690465524
30
0
11
31.669362859533187
21
22.86897866814904
31
0
0
SPLINE
5
175
100
AcDbEntity
8
0
100
AcDbSpline
70
0
71
2
72
6
73
3
74
0
42
0.000000001
43
0.0000000001
44
0.0000000001
40
0
40
0
40
0
40
1
40
1
40
1
10
31.669362859533187
20
22.86897866814904
30
0
10
31.519888416446964
20
22.312883585206858
30
0
10
31.114352826426213
20
22.005491231851153
30
0
0
SPLINE
5
176
100
AcDbEntity
8
0
100
AcDbSpline
70
0
71
2
72
6
73
3
74
0
42
0.000000001
43
0.0000000001
44
0.0000000001
40
0
40
0
40
0
40
1
40
1
40
1
10
31.114352826426213
20
22.005491231851153
30
0
10
30.70881485254036
20
21.698098577917836
30
0
10
30.077847597688738
20
21.697422521915293
30
0
0
SPLINE
5
177
100
AcDbEntity
8
0
100
AcDbSpline
70
0
71
2
72
6
73
3
74
0
42
0.000000001
43
0.0000000001
44
0.0000000001
40
0
40
0
40
0
40
1
40
1
40
1
10
30.077847597688738
20
21.697422521915293
30
0
10
29.283165551099827
20
21.696571052106716
30
0
10
28.817090994484431
20
22.185499102222845
30
0
0
SPLINE
5
178
100
AcDbEntity
8
0
100
AcDbSpline
70
0
71
2
72
6
73
3
74
0
42
0.000000001
43
0.0000000001
44
0.0000000001
40
0
40
0
40
0
40
1
40
1
40
1
10
28.817090994484431
20
22.185499102222845
30
0
10
28.351014053684615
20
22.674427149784421
30
0
10
28.350067573812183
20
23.557782677482741
30
0
0
SPLINE
5
179
100
AcDbEntity
8
0
100
AcDbSpline
70
0
71
2
72
6
73
3
74
0
42
0.000000001
43
0.0000000001
44
0.0000000001
40
0
40
0
40
0
40
1
40
1
40
1
10
28.350067573812183
20
23.557782677482741
30
0
10
28.349088204649419
20
24.471833983574168
30
0
10
28.819216358217297
20
24.977113044006771
30
0
0
SPLINE
5
180
100
AcDbEntity
8
0
100
AcDbSpline
70
0
71
2
72
6
73
3
74
0
42
0.000000001
43
0.0000000001
44
0.0000000001
40
0
40
0
40
0
40
1
40
1
40
1
10
28.819216358217297
20
24.977113044006771
30
0
10
29.289342127920072
20
25.482391803861756
30
0
10
30.039683112620004
20
25.483195764008279
30
0
0
SPLINE
5
181
100
AcDbEntity
8
0
100
AcDbSpline
70
0
71
2
72
6
73
3
74
0
42
0.000000001
43
0.0000000001
44
0.0000000001
40
0
40
0
40
0
40
1
40
1
40
1
10
30.039683112620004
20
25.483195764008279
30
0
10
30.766148874513391
20
25.483974142815086
30
0
10
31.227117221168974
20
24.989924752002981
30
0
0
SPLINE
5
182
100
AcDbEntity
8
0
100
AcDbSpline
70
0
71
2
72
6
73
3
74
0
42
0.000000001
43
0.0000000001
44
0.0000000001
40
0
40
0
40
0
40
1
40
1
40
1
10
31.227117221168974
20
24.989924752002981
30
0
10
31.688080799136394
20
24.495875654104815
30
0
10
31.68904189650668
20
23.598877525118105
30
0
0
SPLINE
5
183
100
AcDbEntity
8
0
100
AcDbSpline
70
0
71
2
72
6
73
3
74
0
42
0.000000001
43
0.0000000001
44
0.0000000001
40
0
40
0
40
0
40
1
40
1
40
1
10
31.68904189650668
20
23.598877525118105
30
0
10
31.689100366498081
20
23.544307119964557
30
0
10
31.685807922118123
20
23.435163252686209
30
0
0
LINE
5
184
100
AcDbEntity
8
0
100
AcDbLine
10
31.685807922118123
20
23.435163252686209
30
0
11
28.984581807708999
21
23.432268997691477
31
0
0
SPLINE
5
185
100
AcDbEntity
8
0
100
AcDbSpline
70
0
71
2
72
6
73
3
74
0
42
0.000000001
43
0.0000000001
44
0.0000000001
40
0
40
0
40
0
40
1
40
1
40
1
10
28.984581807709002
20
23.432268997691477
30
0
10
29.019327079567194
20
22.835443447903408
30
0
10
29.323214143469166
20
22.518579175132018
30
0
0
SPLINE
5
186
100
AcDbEntity
8
0
100
AcDbSpline
70
0
71
2
72
6
73
3
74
0
42
0.000000001
43
0.0000000001
44
0.0000000001
40
0
40
0
40
0
40
1
40
1
40
1
10
29.323214143469166
20
22.518579175132018
30
0
10
29.627101207371147
20
22.201714902360628
30
0
10
30.080716135589
20
22.202200932487717
30
0
0
SPLINE
5
187
100
AcDbEntity
8
0
100
AcDbSpline
70
0
71
2
72
6
73
3
74
0
42
0.000000001
43
0.0000000001
44
0.0000000001
40
0
40
0
40
0
40
1
40
1
40
1
10
30.080716135589
20
22.202200932487717
30
0
10
30.418369101867093
20
22.202562714042742
30
0
10
30.656924150545876
20
22.380171740479071
30
0
0
SPLINE
5
188
100
AcDbEntity
8
0
100
AcDbSpline
70
0
71
2
72
6
73
3
74
0
42
0.000000001
43
0.0000000001
44
0.0000000001
40
0
40
0
40
0
40
1
40
1
40
1
10
30.656924150545876
20
22.380171740479071
30
0
10
30.89547919922466
20
22.557780766915396
30
0
10
31.034899786399865
20
22.946743690465524
30
0
0
LINE
5
189
100
AcDbEntity
8
0
100
AcDbLine
10
29.018146720367799
20
23.937080000169821
30
0
11
31.0406551343122
21
23.939247036482598
31
0
0
SPLINE
5
190
100
AcDbEntity
8
0
100
AcDbSpline
70
0
71
2
72
6
73
3
74
0
42
0.000000001
43
0.0000000001
44
0.0000000001
40
0
40
0
40
0
40
1
40
1
40
1
10
31.040655134312196
20
23.939247036482598
30
0
10
30.999238540094474
20
24.396228688981196
30
0
10
30.807996683480763
20
24.624537093412798
30
0
0
SPLINE
5
191
100
AcDbEntity
8
0
100
AcDbSpline
70
0
71
2
72
6
73
3
74
0
42
0.000000001
43
0.0000000001
44
0.0000000001
40
0
40
0
40
0
40
1
40
1
40
1
10
30.807996683480763
20
24.624537093412798
30
0
10
30.514304725424822
20
24.9789292629257
30
0
10
30.04704749394163
20
24.978428615620082
30
0
0
SPLINE
5
192
100
AcDbEntity
8
0
100
AcDbSpline
70
0
71
2
72
6
73
3
74
0
42
0.000000001
43
0.0000000001
44
0.0000000001
40
0
40
0
40
0
40
1
40
1
40
1
10
30.04704749394163
20
24.978428615620082
30
0
10
29.624126555978574
20
24.977975472867406
30
0
10
29.336229655193478
20
24.694583520775275
30
0
0
SPLINE
5
193
100
AcDbEntity
8
0
100
AcDbSpline
70
0
71
2
72
6
73
3
74
0
42
0.000000001
43
0.0000000001
44
0.0000000001
40
0
40
0
40
0
40
1
40
1
40
1
10
29.336229655193478
20
24.694583520775275
30
0
10
29.048335138592805
20
24.411191571237701
30
0
10
29.018146720367799
20
23.937080000169821
30
0
0
LINE
5
194
100
AcDbEntity
8
0
100
AcDbLine
10
32.434511889199996
20
21.781803294496065
30
0
11
32.430630956133911
21
25.403902164652333
31
0
0
LINE
5
195
100
AcDbEntity
8
0
100
AcDbLine
10
32.430630956133911
20
25.403902164652333
30
0
11
32.983153775117657
21
25.404494170601044
31
0
0
LINE
5
196
100
AcDbEntity
8
0
100
AcDbLine
10
32.983153775117657
20
25.404494170601044
30
0
11
32.983742127410373
21
24.85538133138753
31
0
0
SPLINE
5
197
100
AcDbEntity
8
0
100
AcDbSpline
70
0
71
2
72
6
73
3
74
0
42
0.000000001
43
0.0000000001
44
0.0000000001
40
0
40
0
40
0
40
1
40
1
40
1
10
32.983742127410373
20
24.855381331387534
30
0
10
33.194789653434746
20
25.241010122562841
30
0
10
33.373715114769247
20
25.363985088519403
30
0
0
SPLINE
5
198
100
AcDbEntity
8
0
100
AcDbSpline
70
0
71
2
72
6
73
3
74
0
42
0.000000001
43
0.0000000001
44
0.0000000001
40
0
40
0
40
0
40
1
40
1
40
1
10
33.373715114769247
20
25.363985088519403
30
0
10
33.552640576423073
20
25.486959756452915
30
0
10
33.767512813313147
20
25.487189983401166
30
0
0
SPLINE
5
199
100
AcDbEntity
8
0
100
AcDbSpline
70
0
71
2
72
6
73
3
74
0
42
0.000000001
43
0.0000000001
44
0.0000000001
40
0
40
0
40
0
40
1
40
1
40
1
10
33.767512813313147
20
25.487189983401166
30
0
10
34.077881173060561
20
25.487522530599126
30
0
10
34.398694405269723
20
25.290049068334277
30
0
0
LINE
5
200
100
AcDbEntity
8
0
100
AcDbLine
10
34.398694405269723
20
25.290049068334277
30
0
11
34.187841830802924
21
24.720245604245758
31
0
0
SPLINE
5
201
100
AcDbEntity
8
0
100
AcDbSpline
70
0
71
2
72
6
73
3
74
0
42
0.000000001
43
0.0000000001
44
0.0000000001
40
0
40
0
40
0
40
1
40
1
40
1
10
34.187841830802924
20
24.720245604245761
30
0
10
33.962598922375932
20
24.85301955728994
30
0
10
33.737498534313488
20
24.852778371289631
30
0
0
SPLINE
5
202
100
AcDbEntity
8
0
100
AcDbSpline
70
0
71
2
72
6
73
3
74
0
42
0.000000001
43
0.0000000001
44
0.0000000001
40
0
40
0
40
0
40
1
40
1
40
1
10
33.737498534313488
20
24.852778371289631
30
0
10
33.53626860068875
20
24.852562761519913
30
0
10
33.376100075242867
20
24.731313182730634
30
0
0
SPLINE
5
203
100
AcDbEntity
8
0
100
AcDbSpline
70
0
71
2
72
6
73
3
74
0
42
0.000000001
43
0.0000000001
44
0.0000000001
40
0
40
0
40
0
40
1
40
1
40
1
10
33.376100075242867
20
24.731313182730634
30
0
10
33.215926781428145
20
24.610063598832241
30
0
10
33.147945489814489
20
24.395120362210882
30
0
0
SPLINE
5
204
100
AcDbEntity
8
0
100
AcDbSpline
70
0
71
2
72
6
73
3
74
0
42
0.000000001
43
0.0000000001
44
0.0000000001
40
0
40
0
40
0
40
1
40
1
40
1
10
33.147945489814489
20
24.395120362210882
30
0
10
33.045976650130491
20
24.067589193965205
30
0
10
33.046393247382291
20
23.678776398349903
30
0
0
LINE
5
205
100
AcDbEntity
8
0
100
AcDbLine
10
33.046393247382291
20
23.678776398349903
30
0
11
33.048425072877748
21
21.782461077748163
31
0
0
LINE
5
206
100
AcDbEntity
8
0
100
AcDbLine
10
33.048425072877741
20
21.782461077748163
30
0
11
32.434511889199996
21
21.781803294496065
31
0
0
LINE
5
207
100
AcDbEntity
8
0
100
AcDbLine
10
36.107179256170241
20
22.334851879279228
30
0
11
36.196437655282793
21
21.792655205913391
31
0
0
SPLINE
5
208
100
AcDbEntity
8
0
100
AcDbSpline
70
0
71
2
72
6
73
3
74
0
42
0.000000001
43
0.0000000001
44
0.0000000001
40
0
40
0
40
0
40
1
40
1
40
1
10
36.196437655282793
20
21.792655205913391
30
0
10
35.937287594544671
20
21.737807367281697
30
0
10
35.732648277195807
20
21.737588104494627
30
0
0
SPLINE
5
209
100
AcDbEntity
8
0
100
AcDbSpline
70
0
71
2
72
6
73
3
74
0
42
0.000000001
43
0.0000000001
44
0.0000000001
40
0
40
0
40
0
40
1
40
1
40
1
10
35.732648277195807
20
21.737588104494627
30
0
10
35.398409463010687
20
21.737229981066072
30
0
10
35.214117931006548
20
21.842762577959952
30
0
0
SPLINE
5
210
100
AcDbEntity
8
0
100
AcDbSpline
70
0
71
2
72
6
73
3
74
0
42
0.000000001
43
0.0000000001
44
0.0000000001
40
0
40
0
40
0
40
1
40
1
40
1
10
35.214117931006548
20
21.842762577959952
30
0
10
35.029831167690588
20
21.948294881939894
30
0
10
34.95461157015535
20
22.120451841881849
30
0
0
SPLINE
5
211
100
AcDbEntity
8
0
100
AcDbSpline
70
0
71
2
72
6
73
3
74
0
42
0.000000001
43
0.0000000001
44
0.0000000001
40
0
40
0
40
0
40
1
40
1
40
1
10
34.95461157015535
20
22.120451841881849
30
0
10
34.879396740988973
20
22.292608806932922
30
0
10
34.878804734401626
20
22.845132221962764
30
0
0
LINE
5
212
100
AcDbEntity
8
0
100
AcDbLine
10
34.878804734401626
20
22.845132221962764
30
0
11
34.876571918869537
21
24.929032788739491
31
0
0
LINE
5
213
100
AcDbEntity
8
0
100
AcDbLine
10
34.87657191886953
20
24.929032788739491
30
0
11
34.426366374375796
21
24.928550411629754
31
0
0
LINE
5
214
100
AcDbEntity
8
0
100
AcDbLine
10
34.426366374375803
20
24.928550411629757
30
0
11
34.425854763547648
21
25.406039966608056
31
0
0
LINE
5
215
100
AcDbEntity
8
0
100
AcDbLine
10
34.425854763547648
20
25.406039966608049
30
0
11
34.876060308041382
21
25.406522343717786
31
0
0
LINE
5
216
100
AcDbEntity
8
0
100
AcDbLine
10
34.876060308041374
20
25.406522343717786
30
0
11
34.875099210671095
21
26.303520472704491
31
0
0
LINE
5
217
100
AcDbEntity
8
0
100
AcDbLine
10
34.875099210671088
20
26.303520472704491
30
0
11
35.485208339460037
21
26.672523645633483
31
0
0
LINE
5
218
100
AcDbEntity
8
0
100
AcDbLine
10
35.485208339460044
20
26.67252364563349
30
0
11
35.486564107995008
21
25.407176473952532
31
0
0
LINE
5
219
100
AcDbEntity
8
0
100
AcDbLine
10
35.486564107995008
20
25.407176473952532
30
0
11
36.103886675396872
21
25.407837910221986
31
0
0
LINE
5
220
100
AcDbEntity
8
0
100
AcDbLine
10
36.103886675396872
20
25.407837910221982
30
0
11
36.104398286225027
21
24.930348355243687
31
0
0
LINE
5
221
100
AcDbEntity
8
0
100
AcDbLine
10
36.104398286225027
20
24.930348355243691
30
0
11
35.487075718823156
21
24.929686918974237
31
0
0
LINE
5
222
100
AcDbEntity
8
0
100
AcDbLine
10
35.487075718823164
20
24.929686918974237
30
0
11
35.489345077940214
21
22.811679997988072
31
0
0
SPLINE
5
223
100
AcDbEntity
8
0
100
AcDbSpline
70
0
71
2
72
6
73
3
74
0
42
0.000000001
43
0.0000000001
44
0.0000000001
40
0
40
0
40
0
40
1
40
1
40
1
10
35.489345077940214
20
22.811679997988069
30
0
10
35.489626463736037
20
22.549060891761531
30
0
10
35.522107926115829
20
22.47406145012458
30
0
0
SPLINE
5
224
100
AcDbEntity
8
0
100
AcDbSpline
70
0
71
2
72
6
73
3
74
0
42
0.000000001
43
0.0000000001
44
0.0000000001
40
0
40
0
40
0
40
1
40
1
40
1
10
35.522107926115829
20
22.47406145012458
30
0
10
35.554589388495621
20
22.399062008487626
30
0
10
35.627964871061764
20
22.354802494802421
30
0
0
SPLINE
5
225
100
AcDbEntity
8
0
100
AcDbSpline
70
0
71
2
72
6
73
3
74
0
42
0.000000001
43
0.0000000001
44
0.0000000001
40
0
40
0
40
0
40
1
40
1
40
1
10
35.627964871061764
20
22.354802494802421
30
0
10
35.701340353947231
20
22.31054268309417
30
0
10
35.83776815496941
20
22.310688859988584
30
0
0
SPLINE
5
226
100
AcDbEntity
8
0
100
AcDbSpline
70
0
71
2
72
6
73
3
74
0
42
0.000000001
43
0.0000000001
44
0.0000000001
40
0
40
0
40
0
40
1
40
1
40
1
10
35.83776815496941
20
22.310688859988584
30
0
10
35.940083045275003
20
22.310798486273008
30
0
10
36.107179256170241
20
22.334851879279228
30
0
0
LINE
5
227
100
AcDbEntity
8
0
100
AcDbLine
10
36.682253285318424
20
20.39140124198223
30
0
11
36.613419413334483
21
20.967726192770751
31
0
0
SPLINE
5
228
100
AcDbEntity
8
0
100
AcDbSpline
70
0
71
2
72
6
73
3
74
0
42
0.000000001
43
0.0000000001
44
0.0000000001
40
0
40
0
40
0
40
1
40
1
40
1
10
36.613419413334476
20
20.967726192770751
30
0
10
36.814707816311987
20
20.913371993433021
30
0
10
36.964773152230663
20
20.913532782396857
30
0
0
SPLINE
5
229
100
AcDbEntity
8
0
100
AcDbSpline
70
0
71
2
72
6
73
3
74
0
42
0.000000001
43
0.0000000001
44
0.0000000001
40
0
40
0
40
0
40
1
40
1
40
1
10
36.964773152230663
20
20.913532782396857
30
0
10
37.169412469579527
20
20.91375204518393
30
0
10
37.292124880166455
20
20.982096313318699
30
0
0
SPLINE
5
230
100
AcDbEntity
8
0
100
AcDbSpline
70
0
71
2
72
6
73
3
74
0
42
0.000000001
43
0.0000000001
44
0.0000000001
40
0
40
0
40
0
40
1
40
1
40
1
10
37.292124880166455
20
20.982096313318699
30
0
10
37.414832522384536
20
21.050440576344364
30
0
10
37.493145401091084
20
21.173307739970625
30
0
0
SPLINE
5
231
100
AcDbEntity
8
0
100
AcDbSpline
70
0
71
2
72
6
73
3
74
0
42
0.000000001
43
0.0000000001
44
0.0000000001
40
0
40
0
40
0
40
1
40
1
40
1
10
37.493145401091084
20
21.173307739970625
30
0
10
37.551030098374397
20
21.265457201990539
30
0
10
37.680243347028778
20
21.630534236595995
30
0
0
SPLINE
5
232
100
AcDbEntity
8
0
100
AcDbSpline
70
0
71
2
72
6
73
3
74
0
42
0.000000001
43
0.0000000001
44
0.0000000001
40
0
40
0
40
0
40
1
40
1
40
1
10
37.680243347028778
20
21.630534236595995
30
0
10
37.697240218321461
20
21.681712336129099
30
0
10
37.73465176793308
20
21.780661021459331
30
0
0
LINE
5
233
100
AcDbEntity
8
0
100
AcDbLine
10
37.73465176793308
20
21.780661021459331
30
0
11
36.356276438358826
21
25.408108335688468
31
0
0
LINE
5
234
100
AcDbEntity
8
0
100
AcDbLine
10
36.356276438358826
20
25.408108335688468
30
0
11
37.017940067649668
21
25.408817281619985
31
0
0
LINE
5
235
100
AcDbEntity
8
0
100
AcDbLine
10
37.017940067649668
20
25.408817281619985
30
0
11
37.773937869103669
21
23.312081726718745
31
0
0
SPLINE
5
236
100
AcDbEntity
8
0
100
AcDbSpline
70
0
71
2
72
6
73
3
74
0
42
0.000000001
43
0.0000000001
44
0.0000000001
40
0
40
0
40
0
40
1
40
1
40
1
10
37.773937869103662
20
23.312081726718745
30
0
10
37.921021381753235
20
22.913194041577867
30
0
10
38.037454756641566
20
22.473345665197417
30
0
0
SPLINE
5
237
100
AcDbEntity
8
0
100
AcDbSpline
70
0
71
2
72
6
73
3
74
0
42
0.000000001
43
0.0000000001
44
0.0000000001
40
0
40
0
40
0
40
1
40
1
40
1
10
38.037454756641566
20
22.473345665197417
30
0
10
38.14273065788403
20
22.896378397456104
30
0
10
38.288960163697794
20
23.298990935415389
30
0
0
LINE
5
238
100
AcDbEntity
8
0
100
AcDbLine
10
38.288960163697794
20
23.298990935415389
30
0
11
39.060914320676488
21
25.411006246255113
31
0
0
LINE
5
239
100
AcDbEntity
8
0
100
AcDbLine
10
39.060914320676488
20
25.411006246255113
30
0
11
39.674827504354241
21
25.411664029507214
31
0
0
LINE
5
240
100
AcDbEntity
8
0
100
AcDbLine
10
39.674827504354241
20
25.411664029507214
30
0
11
38.300877744357976
21
21.72669724198758
31
0
0
SPLINE
5
241
100
AcDbEntity
8
0
100
AcDbSpline
70
0
71
2
72
6
73
3
74
0
42
0.000000001
43
0.0000000001
44
0.0000000001
40
0
40
0
40
0
40
1
40
1
40
1
10
38.300877744357976
20
21.72669724198758
30
0
10
38.079821485345668
20
21.129597611161117
30
0
10
37.95728194387388
20
20.904363880353579
30
0
0
SPLINE
5
242
100
AcDbEntity
8
0
100
AcDbSpline
70
0
71
2
72
6
73
3
74
0
42
0.000000001
43
0.0000000001
44
0.0000000001
40
0
40
0
40
0
40
1
40
1
40
1
10
37.95728194387388
20
20.904363880353579
30
0
10
37.793894774291076
20
20.600641857033459
30
0
10
37.582588345914431
20
20.4588734116033
30
0
0
SPLINE
5
243
100
AcDbEntity
8
0
100
AcDbSpline
70
0
71
2
72
6
73
3
74
0
42
0.000000001
43
0.0000000001
44
0.0000000001
40
0
40
0
40
0
40
1
40
1
40
1
10
37.582588345914431
20
20.4588734116033
30
0
10
37.371281916899122
20
20.317105562219254
30
0
10
37.077965244141168
20
20.316791285217171
30
0
0
SPLINE
5
244
100
AcDbEntity
8
0
100
AcDbSpline
70
0
71
2
72
6
73
3
74
0
42
0.000000001
43
0.0000000001
44
0.0000000001
40
0
40
0
40
0
40
1
40
1
40
1
10
37.077965244141168
20
20.316791285217171
30
0
10
36.900610533322968
20
20.316601256787163
30
0
10
36.682253285318424
20
20.39140124198223
30
0
0
SPLINE
5
245
100
AcDbEntity
8
0
100
AcDbSpline
70
0
71
2
72
6
73
3
74
0
42
0.000000001
43
0.0000000001
44
0.0000000001
40
0
40
0
40
0
40
1
40
1
40
1
10
41.910739237997639
20
23.603008204672751
30
0
10
41.909661200963875
20
24.609146845943503
30
0
10
42.468486252162869
20
25.094056867092448
30
0
0
SPLINE
5
246
100
AcDbEntity
8
0
100
AcDbSpline
70
0
71
2
72
6
73
3
74
0
42
0.000000001
43
0.0000000001
44
0.0000000001
40
0
40
0
40
0
40
1
40
1
40
1
10
42.468486252162869
20
25.094056867092448
30
0
10
42.935312268896411
20
25.497012911301752
30
0
10
43.607208817728463
20
25.497732821394443
30
0
0
SPLINE
5
247
100
AcDbEntity
8
0
100
AcDbSpline
70
0
71
2
72
6
73
3
74
0
42
0.000000001
43
0.0000000001
44
0.0000000001
40
0
40
0
40
0
40
1
40
1
40
1
10
43.607208817728463
20
25.497732821394443
30
0
10
44.354140418704276
20
25.498533128523611
30
0
10
44.828740818495085
20
25.009614511528472
30
0
0
SPLINE
5
248
100
AcDbEntity
8
0
100
AcDbSpline
70
0
71
2
72
6
73
3
74
0
42
0.000000001
43
0.0000000001
44
0.0000000001
40
0
40
0
40
0
40
1
40
1
40
1
10
44.828740818495085
20
25.009614511528472
30
0
10
45.303345986974051
20
24.520695601619398
30
0
10
45.304270540759362
20
23.657803826842137
30
0
0
SPLINE
5
249
100
AcDbEntity
8
0
100
AcDbSpline
70
0
71
2
72
6
73
3
74
0
42
0.000000001
43
0.0000000001
44
0.0000000001
40
0
40
0
40
0
40
1
40
1
40
1
10
45.304270540759362
20
23.657803826842137
30
0
10
45.305019685209118
20
22.958622671479411
30
0
10
45.095693295372655
20
22.557648115639282
30
0
0
SPLINE
5
250
100
AcDbEntity
8
0
100
AcDbSpline
70
0
71
2
72
6
73
3
74
0
42
0.000000001
43
0.0000000001
44
0.0000000001
40
0
40
0
40
0
40
1
40
1
40
1
10
45.095693295372655
20
22.557648115639282
30
0
10
44.886366906174828
20
22.156672963753046
30
0
10
44.485856416642953
20
21.93455227602459
30
0
0
SPLINE
5
251
100
AcDbEntity
8
0
100
AcDbSpline
70
0
71
2
72
6
73
3
74
0
42
0.000000001
43
0.0000000001
44
0.0000000001
40
0
40
0
40
0
40
1
40
1
40
1
10
44.485856416642953
20
21.93455227602459
30
0
10
44.085341159380874
20
21.712430987140905
30
0
10
43.611265160449435
20
21.711923033800581
30
0
0
SPLINE
5
252
100
AcDbEntity
8
0
100
AcDbSpline
70
0
71
2
72
6
73
3
74
0
42
0.000000001
43
0.0000000001
44
0.0000000001
40
0
40
0
40
0
40
1
40
1
40
1
10
43.611265160449435
20
21.711923033800581
30
0
10
42.850691256208286
20
21.711108109492884
30
0
10
42.381204374647233
20
22.19832721357438
30
0
0
SPLINE
5
253
100
AcDbEntity
8
0
100
AcDbSpline
70
0
71
2
72
6
73
3
74
0
42
0.000000001
43
0.0000000001
44
0.0000000001
40
0
40
0
40
0
40
1
40
1
40
1
10
42.381204374647233
20
22.19832721357438
30
0
10
41.911722261455033
20
22.685546322764992
30
0
10
41.910739237997639
20
23.603008204672751
30
0
0
SPLINE
5
254
100
AcDbEntity
8
0
100
AcDbSpline
70
0
71
2
72
6
73
3
74
0
42
0.000000001
43
0.0000000001
44
0.0000000001
40
0
40
0
40
0
40
1
40
1
40
1
10
42.541704108664845
20
23.603684258120733
30
0
10
42.542449598500639
20
22.907913976597403
30
0
10
42.846370108730063
20
22.56205921589563
30
0
0
SPLINE
5
255
100
AcDbEntity
8
0
100
AcDbSpline
70
0
71
2
72
6
73
3
74
0
42
0.000000001
43
0.0000000001
44
0.0000000001
40
0
40
0
40
0
40
1
40
1
40
1
10
42.846370108730063
20
22.56205921589563
30
0
10
43.150285850590635
20
22.216204450084739
30
0
10
43.610724314625571
20
22.216697791355649
30
0
0
SPLINE
5
256
100
AcDbEntity
8
0
100
AcDbSpline
70
0
71
2
72
6
73
3
74
0
42
0.000000001
43
0.0000000001
44
0.0000000001
40
0
40
0
40
0
40
1
40
1
40
1
10
43.610724314625571
20
22.216697791355649
30
0
10
44.06774862656755
20
22.21718747450009
30
0
10
44.370925473789171
20
22.565398005436535
30
0
0
SPLINE
5
257
100
AcDbEntity
8
0
100
AcDbSpline
70
0
71
2
72
6
73
3
74
0
42
0.000000001
43
0.0000000001
44
0.0000000001
40
0
40
0
40
0
40
1
40
1
40
1
10
44.370925473789171
20
22.565398005436535
30
0
10
44.674097552641932
20
22.913608531263868
30
0
10
44.673333791013654
20
23.626431989891927
30
0
0
SPLINE
5
258
100
AcDbEntity
8
0
100
AcDbSpline
70
0
71
2
72
6
73
3
74
0
42
0.000000001
43
0.0000000001
44
0.0000000001
40
0
40
0
40
0
40
1
40
1
40
1
10
44.673333791013654
20
23.626431989891927
30
0
10
44.672613881559599
20
24.298327942677872
30
0
10
44.366991063652542
20
24.64418087942553
30
0
0
SPLINE
5
259
100
AcDbEntity
8
0
100
AcDbSpline
70
0
71
2
72
6
73
3
74
0
42
0.000000001
43
0.0000000001
44
0.0000000001
40
0
40
0
40
0
40
1
40
1
40
1
10
44.366991063652542
20
24.64418087942553
30
0
10
44.061368245745484
20
24.990033816173181
30
0
10
43.607753317527632
20
24.989547786046096
30
0
0
SPLINE
5
260
100
AcDbEntity
8
0
100
AcDbSpline
70
0
71
2
72
6
73
3
74
0
42
0.000000001
43
0.0000000001
44
0.0000000001
40
0
40
0
40
0
40
1
40
1
40
1
10
43.607753317527632
20
24.989547786046096
30
0
10
43.147314853492695
20
24.989054444775185
30
0
10
42.844139120345289
20
24.644254494764187
30
0
0
SPLINE
5
261
100
AcDbEntity
8
0
100
AcDbSpline
70
0
71
2
72
6
73
3
74
0
42
0.000000001
43
0.0000000001
44
0.0000000001
40
0
40
0
40
0
40
1
40
1
40
1
10
42.844139120345289
20
24.644254494764187
30
0
10
42.54095861850972
20
24.299454837667124
30
0
10
42.541704108664845
20
23.603684258120733
30
0
0
LINE
5
262
100
AcDbEntity
8
0
100
AcDbLine
10
46.172564000940717
20
21.796523064059308
30
0
11
46.169194678702787
21
24.941132379237281
31
0
0
LINE
5
263
100
AcDbEntity
8
0
100
AcDbLine
10
46.169194678702787
20
24.941132379237278
30
0
11
45.626902395075831
21
24.940551334895183
31
0
0
LINE
5
264
100
AcDbEntity
8
0
100
AcDbLine
10
45.626902395075831
20
24.94055133489519
30
0
11
45.626390784247675
21
25.418040889873485
31
0
0
LINE
5
265
100
AcDbEntity
8
0
100
AcDbLine
10
45.626390784247675
20
25.418040889873481
30
0
11
46.168683067874632
21
25.418621934215576
31
0
0
LINE
5
266
100
AcDbEntity
8
0
100
AcDbLine
10
46.168683067874632
20
25.418621934215576
30
0
11
46.16827012491747
21
25.804024154014545
31
0
0
SPLINE
5
267
100
AcDbEntity
8
0
100
AcDbSpline
70
0
71
2
72
6
73
3
74
0
42
0.000000001
43
0.0000000001
44
0.0000000001
40
0
40
0
40
0
40
1
40
1
40
1
10
46.16827012491747
20
25.804024154014545
30
0
10
46.167879108047423
20
26.168962620892458
30
0
10
46.232491213816559
20
26.346385274470691
30
0
0
SPLINE
5
268
100
AcDbEntity
8
0
100
AcDbSpline
70
0
71
2
72
6
73
3
74
0
42
0.000000001
43
0.0000000001
44
0.0000000001
40
0
40
0
40
0
40
1
40
1
40
1
10
46.232491213816559
20
26.346385274470691
30
0
10
46.320912763811577
20
26.585225066174839
30
0
10
46.544151879506003
20
26.73382715843902
30
0
0
SPLINE
5
269
100
AcDbEntity
8
0
100
AcDbSpline
70
0
71
2
72
6
73
3
74
0
42
0.000000001
43
0.0000000001
44
0.0000000001
40
0
40
0
40
0
40
1
40
1
40
1
10
46.544151879506003
20
26.73382715843902
30
0
10
46.767386226512244
20
26.882429543617139
30
0
10
47.169846093761727
20
26.882860763156575
30
0
0
SPLINE
5
270
100
AcDbEntity
8
0
100
AcDbSpline
70
0
71
2
72
6
73
3
74
0
42
0.000000001
43
0.0000000001
44
0.0000000001
40
0
40
0
40
0
40
1
40
1
40
1
10
47.169846093761727
20
26.882860763156575
30
0
10
47.429054624171926
20
26.883138494657768
30
0
10
47.742898146224135
20
26.822083138086864
30
0
0
LINE
5
271
100
AcDbEntity
8
0
100
AcDbLine
10
47.742898146224135
20
26.822083138086864
30
0
11
47.651385142205108
21
26.286513934906324
31
0
0
SPLINE
5
272
100
AcDbEntity
8
0
100
AcDbSpline
70
0
71
2
72
6
73
3
74
0
42
0.000000001
43
0.0000000001
44
0.0000000001
40
0
40
0
40
0
40
1
40
1
40
1
10
47.6513851422051
20
26.286513934906324
30
0
10
47.46035158453661
20
26.320415643507225
30
0
10
47.289820409535501
20
26.320232926221042
30
0
0
SPLINE
5
273
100
AcDbEntity
8
0
100
AcDbSpline
70
0
71
2
72
6
73
3
74
0
42
0.000000001
43
0.0000000001
44
0.0000000001
40
0
40
0
40
0
40
1
40
1
40
1
10
47.289820409535501
20
26.320232926221042
30
0
10
47.010146040042869
20
26.319933266397495
30
0
10
46.894311980650485
20
26.200436778092381
30
0
0
SPLINE
5
274
100
AcDbEntity
8
0
100
AcDbSpline
70
0
71
2
72
6
73
3
74
0
42
0.000000001
43
0.0000000001
44
0.0000000001
40
0
40
0
40
0
40
1
40
1
40
1
10
46.894311980650485
20
26.200436778092381
30
0
10
46.778477921577419
20
26.080939991764215
30
0
10
46.778828740248542
20
25.753518752935129
30
0
0
LINE
5
275
100
AcDbEntity
8
0
100
AcDbLine
10
46.778828740248542
20
25.753518752935129
30
0
11
46.779186867828251
21
25.419276064450322
31
0
0
LINE
5
276
100
AcDbEntity
8
0
100
AcDbLine
10
46.779186867828251
20
25.419276064450322
30
0
11
47.485191559008072
21
25.420032520043897
31
0
0
LINE
5
277
100
AcDbEntity
8
0
100
AcDbLine
10
47.485191559008072
20
25.420032520043897
30
0
11
47.485703169836228
21
24.942542965065599
31
0
0
LINE
5
278
100
AcDbEntity
8
0
100
AcDbLine
10
47.485703169836235
20
24.942542965065599
30
0
11
46.779698478656414
21
24.941786509472024
31
0
0
LINE
5
279
100
AcDbEntity
8
0
100
AcDbLine
10
46.779698478656414
20
24.941786509472024
30
0
11
46.783067800894351
21
21.797177194294051
31
0
0
LINE
5
280
100
AcDbEntity
8
0
100
AcDbLine
10
46.783067800894351
20
21.797177194294051
30
0
11
46.172564000940724
21
21.796523064059304
31
0
0
LINE
5
281
100
AcDbEntity
8
0
100
AcDbLine
10
7.6799258673210709
20
13.951728486874423
30
0
11
7.6745685717619105
21
18.951725616812027
31
0
0
LINE
5
282
100
AcDbEntity
8
0
100
AcDbLine
10
7.6745685717619105
20
18.951725616812027
30
0
11
9.3969413964885806
21
18.953571069928362
31
0
0
SPLINE
5
283
100
AcDbEntity
8
0
100
AcDbSpline
70
0
71
2
72
6
73
3
74
0
42
0.000000001
43
0.0000000001
44
0.0000000001
40
0
40
0
40
0
40
1
40
1
40
1
10
9.3969413964885806
20
18.953571069928362
30
0
10
9.9801608879345878
20
18.954195966125368
30
0
10
10.287195115307185
20
18.882901574474154
30
0
0
SPLINE
5
284
100
AcDbEntity
8
0
100
AcDbSpline
70
0
71
2
72
6
73
3
74
0
42
0.000000001
43
0.0000000001
44
0.0000000001
40
0
40
0
40
0
40
1
40
1
40
1
10
10.287195115307185
20
18.882901574474154
30
0
10
10.717041691886553
20
18.784452941361398
30
0
10
11.020866333479445
20
18.525569649240573
30
0
0
SPLINE
5
285
100
AcDbEntity
8
0
100
AcDbSpline
70
0
71
2
72
6
73
3
74
0
42
0.000000001
43
0.0000000001
44
0.0000000001
40
0
40
0
40
0
40
1
40
1
40
1
10
11.020866333479445
20
18.525569649240573
30
0
10
11.416858706010856
20
18.191751164939195
30
0
10
11.613527681876381
20
17.671838941983836
30
0
0
SPLINE
5
286
100
AcDbEntity
8
0
100
AcDbSpline
70
0
71
2
72
6
73
3
74
0
42
0.000000001
43
0.0000000001
44
0.0000000001
40
0
40
0
40
0
40
1
40
1
40
1
10
11.613527681876381
20
17.671838941983836
30
0
10
11.810196657741905
20
17.151926719028474
30
0
10
11.810912913539964
20
16.483440746012754
30
0
0
SPLINE
5
287
100
AcDbEntity
8
0
100
AcDbSpline
70
0
71
2
72
6
73
3
74
0
42
0.000000001
43
0.0000000001
44
0.0000000001
40
0
40
0
40
0
40
1
40
1
40
1
10
11.810912913539964
20
16.483440746012754
30
0
10
11.81152319223912
20
15.913863855855134
30
0
10
11.678979762888964
20
15.473749902949599
30
0
0
SPLINE
5
288
100
AcDbEntity
8
0
100
AcDbSpline
70
0
71
2
72
6
73
3
74
0
42
0.000000001
43
0.0000000001
44
0.0000000001
40
0
40
0
40
0
40
1
40
1
40
1
10
11.678979762888964
20
15.473749902949599
30
0
10
11.546436334816089
20
15.033634757951848
30
0
10
11.338695831341209
20
14.74521282061364
30
0
0
SPLINE
5
289
100
AcDbEntity
8
0
100
AcDbSpline
70
0
71
2
72
6
73
3
74
0
42
0.000000001
43
0.0000000001
44
0.0000000001
40
0
40
0
40
0
40
1
40
1
40
1
10
11.338695831341209
20
14.74521282061364
30
0
10
11.130955625889381
20
14.456790883594753
30
0
10
10.883861645342277
20
14.291110035121381
30
0
0
SPLINE
5
290
100
AcDbEntity
8
0
100
AcDbSpline
70
0
71
2
72
6
73
3
74
0
42
0.000000001
43
0.0000000001
44
0.0000000001
40
0
40
0
40
0
40
1
40
1
40
1
10
10.883861645342277
20
14.291110035121381
30
0
10
10.636767664795173
20
14.125429186648013
30
0
10
10.287268447034187
20
14.039787834830372
30
0
0
SPLINE
5
291
100
AcDbEntity
8
0
100
AcDbSpline
70
0
71
2
72
6
73
3
74
0
42
0.000000001
43
0.0000000001
44
0.0000000001
40
0
40
0
40
0
40
1
40
1
40
1
10
10.287268447034187
20
14.039787834830372
30
0
10
9.9377692279959184
20
13.954147675104945
30
0
10
9.4841540017550123
20
13.953661644658537
30
0
0
LINE
5
292
100
AcDbEntity
8
0
100
AcDbLine
10
9.4841540017550123
20
13.953661644658537
30
0
11
7.6799258673210709
21
13.951728486874423
31
0
0
LINE
5
293
100
AcDbEntity
8
0
100
AcDbLine
10
8.3409577391795402
20
14.542477778340537
30
0
11
9.4084879372365098
21
14.543621593954963
31
0
0
SPLINE
5
294
100
AcDbEntity
8
0
100
AcDbSpline
70
0
71
2
72
6
73
3
74
0
42
0.000000001
43
0.0000000001
44
0.0000000001
40
0
40
0
40
0
40
1
40
1
40
1
10
9.4084879372365098
20
14.543621593954963
30
0
10
9.9030306693195254
20
14.544151476575601
30
0
10
10.18430957204931
20
14.636540892536658
30
0
0
SPLINE
5
295
100
AcDbEntity
8
0
100
AcDbSpline
70
0
71
2
72
6
73
3
74
0
42
0.000000001
43
0.0000000001
44
0.0000000001
40
0
40
0
40
0
40
1
40
1
40
1
10
10.18430957204931
20
14.636540892536658
30
0
10
10.465588774079428
20
14.728929116724823
30
0
10
10.63253090504147
20
14.896229971631998
30
0
0
SPLINE
5
296
100
AcDbEntity
8
0
100
AcDbSpline
70
0
71
2
72
6
73
3
74
0
42
0.000000001
43
0.0000000001
44
0.0000000001
40
0
40
0
40
0
40
1
40
1
40
1
10
10.63253090504147
20
14.896229971631998
30
0
10
10.867612956552797
20
15.1318154303551
30
0
10
10.998496776039053
20
15.529295954455256
30
0
0
SPLINE
5
297
100
AcDbEntity
8
0
100
AcDbSpline
70
0
71
2
72
6
73
3
74
0
42
0.000000001
43
0.0000000001
44
0.0000000001
40
0
40
0
40
0
40
1
40
1
40
1
10
10.998496776039053
20
15.529295954455256
30
0
10
11.129380595525308
20
15.926776478555414
30
0
10
11.128773971120786
20
16.492942792896699
30
0
0
SPLINE
5
298
100
AcDbEntity
8
0
100
AcDbSpline
70
0
71
2
72
6
73
3
74
0
42
0.000000001
43
0.0000000001
44
0.0000000001
40
0
40
0
40
0
40
1
40
1
40
1
10
11.128773971120786
20
16.492942792896699
30
0
10
11.12793346802794
20
17.277389535759973
30
0
10
10.869978911836462
20
17.698327493322672
30
0
0
SPLINE
5
299
100
AcDbEntity
8
0
100
AcDbSpline
70
0
71
2
72
6
73
3
74
0
42
0.000000001
43
0.0000000001
44
0.0000000001
40
0
40
0
40
0
40
1
40
1
40
1
10
10.869978911836462
20
17.698327493322672
30
0
10
10.612024355644987
20
18.119265450885376
30
0
10
10.243521830021612
20
18.26211734819114
30
0
0
SPLINE
5
300
100
AcDbEntity
8
0
100
AcDbSpline
70
0
71
2
72
6
73
3
74
0
42
0.000000001
43
0.0000000001
44
0.0000000001
40
0
40
0
40
0
40
1
40
1
40
1
10
10.243521830021612
20
18.26211734819114
30
0
10
9.9773822185621537
20
18.36415196645579
30
0
10
9.387341575483477
20
18.363519761669522
30
0
0
LINE
5
301
100
AcDbEntity
8
0
100
AcDbLine
10
9.387341575483477
20
18.363519761669522
30
0
11
8.3368648525542817
21
18.362394218166898
31
0
0
LINE
5
302
100
AcDbEntity
8
0
100
AcDbLine
10
8.3368648525542817
20
18.362394218166898
30
0
11
8.3409577391795402
21
14.542477778340537
31
0
0
SPLINE
5
303
100
AcDbEntity
8
0
100
AcDbSpline
70
0
71
2
72
6
73
3
74
0
42
0.000000001
43
0.0000000001
44
0.0000000001
40
0
40
0
40
0
40
1
40
1
40
1
10
15.008911218653971
20
14.406375489033163
30
0
10
14.668157105897507
20
14.116105147056812
30
0
10
14.352801380061111
20
13.996395773391653
30
0
0
SPLINE
5
304
100
AcDbEntity
8
0
100
AcDbSpline
70
0
71
2
72
6
73
3
74
0
42
0.000000001
43
0.0000000001
44
0.0000000001
40
0
40
0
40
0
40
1
40
1
40
1
10
14.352801380061111
20
13.996395773391653
30
0
10
14.037445059455891
20
13.876685206995642
30
0
10
13.675917466417363
20
13.876297844739554
30
0
0
SPLINE
5
305
100
AcDbEntity
8
0
100
AcDbSpline
70
0
71
2
72
6
73
3
74
0
42
0.000000001
43
0.0000000001
44
0.0000000001
40
0
40
0
40
0
40
1
40
1
40
1
10
13.675917466417363
20
13.876297844739554
30
0
10
13.079055373682969
20
13.875658331044697
30
0
10
12.758142838547709
20
14.166924417674316
30
0
0
SPLINE
5
306
100
AcDbEntity
8
0
100
AcDbSpline
70
0
71
2
72
6
73
3
74
0
42
0.000000001
43
0.0000000001
44
0.0000000001
40
0
40
0
40
0
40
1
40
1
40
1
10
12.758142838547709
20
14.166924417674316
30
0
10
12.437230303412443
20
14.458190504303936
30
0
10
12.436744273285354
20
14.91180543252179
30
0
0
SPLINE
5
307
100
AcDbEntity
8
0
100
AcDbSpline
70
0
71
2
72
6
73
3
74
0
42
0.000000001
43
0.0000000001
44
0.0000000001
40
0
40
0
40
0
40
1
40
1
40
1
10
12.436744273285354
20
14.91180543252179
30
0
10
12.436459233194896
20
15.17783511456466
30
0
10
12.557301352384883
20
15.397951157054932
30
0
0
SPLINE
5
308
100
AcDbEntity
8
0
100
AcDbSpline
70
0
71
2
72
6
73
3
74
0
42
0.000000001
43
0.0000000001
44
0.0000000001
40
0
40
0
40
0
40
1
40
1
40
1
10
12.557301352384883
20
15.397951157054932
30
0
10
12.67814347157487
20
15.618067199545207
30
0
10
12.874112637245458
20
15.751292166339855
30
0
0
SPLINE
5
309
100
AcDbEntity
8
0
100
AcDbSpline
70
0
71
2
72
6
73
3
74
0
42
0.000000001
43
0.0000000001
44
0.0000000001
40
0
40
0
40
0
40
1
40
1
40
1
10
12.874112637245458
20
15.751292166339855
30
0
10
13.070081802916047
20
15.8845171331345
30
0
10
13.315574346844878
20
15.952992955237406
30
0
0
SPLINE
5
310
100
AcDbEntity
8
0
100
AcDbSpline
70
0
71
2
72
6
73
3
74
0
42
0.000000001
43
0.0000000001
44
0.0000000001
40
0
40
0
40
0
40
1
40
1
40
1
10
13.315574346844878
20
15.952992955237406
30
0
10
13.49628727998506
20
16.000935890205653
30
0
10
13.861178537778525
20
16.045665585099563
30
0
0
SPLINE
5
311
100
AcDbEntity
8
0
100
AcDbSpline
70
0
71
2
72
6
73
3
74
0
42
0.000000001
43
0.0000000001
44
0.0000000001
40
0
40
0
40
0
40
1
40
1
40
1
10
13.861178537778525
20
16.045665585099563
30
0
10
14.604602761861965
20
16.135138399335066
30
0
10
14.955767070290161
20
16.258297912279691
30
0
0
SPLINE
5
312
100
AcDbEntity
8
0
100
AcDbSpline
70
0
71
2
72
6
73
3
74
0
42
0.000000001
43
0.0000000001
44
0.0000000001
40
0
40
0
40
0
40
1
40
1
40
1
10
14.955767070290161
20
16.258297912279691
30
0
10
14.959042434650529
20
16.384495255963088
30
0
10
14.959005890426925
20
16.418602206218637
30
0
0
SPLINE
5
313
100
AcDbEntity
8
0
100
AcDbSpline
70
0
71
2
72
6
73
3
74
0
42
0.000000001
43
0.0000000001
44
0.0000000001
40
0
40
0
40
0
40
1
40
1
40
1
10
14.959005890426925
20
16.418602206218637
30
0
10
14.958603911630943
20
16.793771506476396
30
0
10
14.784496521630988
20
16.947064621629945
30
0
0
SPLINE
5
314
100
AcDbEntity
8
0
100
AcDbSpline
70
0
71
2
72
6
73
3
74
0
42
0.000000001
43
0.0000000001
44
0.0000000001
40
0
40
0
40
0
40
1
40
1
40
1
10
14.784496521630988
20
16.947064621629945
30
0
10
14.548939702176803
20
17.154861171902805
30
0
10
14.08509245046384
20
17.154364178253179
30
0
0
SPLINE
5
315
100
AcDbEntity
8
0
100
AcDbSpline
70
0
71
2
72
6
73
3
74
0
42
0.000000001
43
0.0000000001
44
0.0000000001
40
0
40
0
40
0
40
1
40
1
40
1
10
14.08509245046384
20
17.154364178253179
30
0
10
13.651941573190093
20
17.153900074532523
30
0
10
13.445760779329623
20
17.001905381818041
30
0
0
SPLINE
5
316
100
AcDbEntity
8
0
100
AcDbSpline
70
0
71
2
72
6
73
3
74
0
42
0.000000001
43
0.0000000001
44
0.0000000001
40
0
40
0
40
0
40
1
40
1
40
1
10
13.445760779329623
20
17.001905381818041
30
0
10
13.239579389423046
20
16.849910688464917
30
0
10
13.141083845568211
20
16.464402492205682
30
0
0
LINE
5
317
100
AcDbEntity
8
0
100
AcDbLine
10
13.141083845568211
20
16.464402492205682
30
0
11
12.540723471391741
21
16.545615527992624
31
0
0
SPLINE
5
318
100
AcDbEntity
8
0
100
AcDbSpline
70
0
71
2
72
6
73
3
74
0
42
0.000000001
43
0.0000000001
44
0.0000000001
40
0
40
0
40
0
40
1
40
1
40
1
10
12.540723471391741
20
16.545615527992627
30
0
10
12.62216613680355
20
16.931104856732592
30
0
10
12.809497404392452
20
17.168345634373253
30
0
0
SPLINE
5
319
100
AcDbEntity
8
0
100
AcDbSpline
70
0
71
2
72
6
73
3
74
0
42
0.000000001
43
0.0000000001
44
0.0000000001
40
0
40
0
40
0
40
1
40
1
40
1
10
12.809497404392452
20
17.168345634373253
30
0
10
12.996828672619994
20
17.405585815967815
30
0
10
13.351398076061212
20
17.533864250885465
30
0
0
SPLINE
5
320
100
AcDbEntity
8
0
100
AcDbSpline
70
0
71
2
72
6
73
3
74
0
42
0.000000001
43
0.0000000001
44
0.0000000001
40
0
40
0
40
0
40
1
40
1
40
1
10
13.351398076061212
20
17.533864250885465
30
0
10
13.705967478225155
20
17.662143877895332
30
0
10
14.173224709708343
20
17.662644525200946
30
0
0
SPLINE
5
321
100
AcDbEntity
8
0
100
AcDbSpline
70
0
71
2
72
6
73
3
74
0
42
0.000000001
43
0.0000000001
44
0.0000000001
40
0
40
0
40
0
40
1
40
1
40
1
10
14.173224709708343
20
17.662644525200946
30
0
10
14.637071961421302
20
17.663141518850573
30
0
10
14.927093210207413
20
17.554311329335
30
0
0
SPLINE
5
322
100
AcDbEntity
8
0
100
AcDbSpline
70
0
71
2
72
6
73
3
74
0
42
0.000000001
43
0.0000000001
44
0.0000000001
40
0
40
0
40
0
40
1
40
1
40
1
10
14.927093210207413
20
17.554311329335
30
0
10
15.217114458354889
20
17.445481735865535
30
0
10
15.353717112314174
20
17.280211406836582
30
0
0
SPLINE
5
323
100
AcDbEntity
8
0
100
AcDbSpline
70
0
71
2
72
6
73
3
74
0
42
0.000000001
43
0.0000000001
44
0.0000000001
40
0
40
0
40
0
40
1
40
1
40
1
10
15.353717112314174
20
17.280211406836582
30
0
10
15.490319765634821
20
17.114941673853732
30
0
10
15.545160593700299
20
16.862612765067595
30
0
0
SPLINE
5
324
100
AcDbEntity
8
0
100
AcDbSpline
70
0
71
2
72
6
73
3
74
0
42
0.000000001
43
0.0000000001
44
0.0000000001
40
0
40
0
40
0
40
1
40
1
40
1
10
15.545160593700299
20
16.862612765067595
30
0
10
15.576024472201064
20
16.70575678262216
30
0
10
15.576462995220652
20
16.296480532108855
30
0
0
LINE
5
325
100
AcDbEntity
8
0
100
AcDbLine
10
15.576462995220652
20
16.296480532108855
30
0
11
15.577340042537104
21
15.477926838990033
31
0
0
SPLINE
5
326
100
AcDbEntity
8
0
100
AcDbSpline
70
0
71
2
72
6
73
3
74
0
42
0.000000001
43
0.0000000001
44
0.0000000001
40
0
40
0
40
0
40
1
40
1
40
1
10
15.577340042537104
20
15.477926838990033
30
0
10
15.578257288371793
20
14.621855619799328
30
0
10
15.617723117415387
20
14.395090181355956
30
0
0
SPLINE
5
327
100
AcDbEntity
8
0
100
AcDbSpline
70
0
71
2
72
6
73
3
74
0
42
0.000000001
43
0.0000000001
44
0.0000000001
40
0
40
0
40
0
40
1
40
1
40
1
10
15.617723117415387
20
14.395090181355956
30
0
10
15.657188350412877
20
14.168324742273944
30
0
10
15.773372632110959
20
13.960400289134384
30
0
0
LINE
5
328
100
AcDbEntity
8
0
100
AcDbLine
10
15.773372632110959
20
13.960400289134384
30
0
11
15.132172457718124
21
13.959713268970667
31
0
0
SPLINE
5
329
100
AcDbEntity
8
0
100
AcDbSpline
70
0
71
2
72
6
73
3
74
0
42
0.000000001
43
0.0000000001
44
0.0000000001
40
0
40
0
40
0
40
1
40
1
40
1
10
15.132172457718124
20
13.959713268970667
30
0
10
15.0364699023912
20
14.150606768796353
30
0
10
15.008911218653971
20
14.406375489033163
30
0
0
SPLINE
5
330
100
AcDbEntity
8
0
100
AcDbSpline
70
0
71
2
72
6
73
3
74
0
42
0.000000001
43
0.0000000001
44
0.0000000001
40
0
40
0
40
0
40
1
40
1
40
1
10
14.956282336051586
20
15.777397185438957
30
0
10
14.622185523883591
20
15.64061364070216
30
0
10
13.953802468440969
20
15.544400070593188
30
0
0
SPLINE
5
331
100
AcDbEntity
8
0
100
AcDbSpline
70
0
71
2
72
6
73
3
74
0
42
0.000000001
43
0.0000000001
44
0.0000000001
40
0
40
0
40
0
40
1
40
1
40
1
10
13.953802468440969
20
15.544400070593188
30
0
10
13.575279870266069
20
15.489424031071746
30
0
10
13.418464085700229
20
15.421043222545203
30
0
0
SPLINE
5
332
100
AcDbEntity
8
0
100
AcDbSpline
70
0
71
2
72
6
73
3
74
0
42
0.000000001
43
0.0000000001
44
0.0000000001
40
0
40
0
40
0
40
1
40
1
40
1
10
13.418464085700229
20
15.421043222545203
30
0
10
13.261647705088285
20
15.352662413380022
30
0
10
13.17652221507818
20
15.221260904938918
30
0
0
SPLINE
5
333
100
AcDbEntity
8
0
100
AcDbSpline
70
0
71
2
72
6
73
3
74
0
42
0.000000001
43
0.0000000001
44
0.0000000001
40
0
40
0
40
0
40
1
40
1
40
1
10
13.17652221507818
20
15.221260904938918
30
0
10
13.091397319836901
20
15.08986058922866
30
0
10
13.091569075516469
20
14.929559949584345
30
0
0
SPLINE
5
334
100
AcDbEntity
8
0
100
AcDbSpline
70
0
71
2
72
6
73
3
74
0
42
0.000000001
43
0.0000000001
44
0.0000000001
40
0
40
0
40
0
40
1
40
1
40
1
10
13.091569075516469
20
14.929559949584345
30
0
10
13.091832189839131
20
14.683993722439476
30
0
10
13.277886960756769
20
14.520482861321714
30
0
0
SPLINE
5
335
100
AcDbEntity
8
0
100
AcDbSpline
70
0
71
2
72
6
73
3
74
0
42
0.000000001
43
0.0000000001
44
0.0000000001
40
0
40
0
40
0
40
1
40
1
40
1
10
13.277886960756769
20
14.520482861321714
30
0
10
13.463942328997787
20
14.356970808750377
30
0
10
13.822059346219984
20
14.357354516711835
30
0
0
SPLINE
5
336
100
AcDbEntity
8
0
100
AcDbSpline
70
0
71
2
72
6
73
3
74
0
42
0.000000001
43
0.0000000001
44
0.0000000001
40
0
40
0
40
0
40
1
40
1
40
1
10
13.822059346219984
20
14.357354516711835
30
0
10
14.176765787625845
20
14.357734570378661
30
0
10
14.45286151956484
20
14.513214753865364
30
0
0
SPLINE
5
337
100
AcDbEntity
8
0
100
AcDbSpline
70
0
71
2
72
6
73
3
74
0
42
0.000000001
43
0.0000000001
44
0.0000000001
40
0
40
0
40
0
40
1
40
1
40
1
10
14.45286151956484
20
14.513214753865364
30
0
10
14.728956655457729
20
14.668694936713431
30
0
10
14.858272226277737
20
14.938274060323229
30
0
0
SPLINE
5
338
100
AcDbEntity
8
0
100
AcDbSpline
70
0
71
2
72
6
73
3
74
0
42
0.000000001
43
0.0000000001
44
0.0000000001
40
0
40
0
40
0
40
1
40
1
40
1
10
14.858272226277737
20
14.938274060323229
30
0
10
14.956958393331412
20
15.14642873849512
30
0
10
14.956523523329178
20
15.5522956052843
30
0
0
LINE
5
339
100
AcDbEntity
8
0
100
AcDbLine
10
14.956523523329178
20
15.5522956052843
30
0
11
14.956282336051586
21
15.777397185438955
31
0
0
LINE
5
340
100
AcDbEntity
8
0
100
AcDbLine
10
17.536673111691265
20
13.962289594584609
30
0
11
16.154894514889946
21
17.58291210288645
31
0
0
LINE
5
341
100
AcDbEntity
8
0
100
AcDbLine
10
16.154894514889946
20
17.58291210288645
30
0
11
16.80291584091545
21
17.583606431639435
31
0
0
LINE
5
342
100
AcDbEntity
8
0
100
AcDbLine
10
16.802915840915453
20
17.583606431639435
30
0
11
17.582865606321242
21
15.415273471865735
31
0
0
SPLINE
5
343
100
AcDbEntity
8
0
100
AcDbSpline
70
0
71
2
72
6
73
3
74
0
42
0.000000001
43
0.0000000001
44
0.0000000001
40
0
40
0
40
0
40
1
40
1
40
1
10
17.582865606321242
20
15.415273471865738
30
0
10
17.709435695720842
20
15.064112221686068
30
0
10
17.815571564579503
20
14.685644439207934
30
0
0
SPLINE
5
344
100
AcDbEntity
8
0
100
AcDbSpline
70
0
71
2
72
6
73
3
74
0
42
0.000000001
43
0.0000000001
44
0.0000000001
40
0
40
0
40
0
40
1
40
1
40
1
10
17.815571564579503
20
14.685644439207934
30
0
10
17.897119609128186
20
14.972226472589476
30
0
10
18.043345538984635
20
15.374838708693874
30
0
0
LINE
5
345
100
AcDbEntity
8
0
100
AcDbLine
10
18.043345538984635
20
15.374838708693874
30
0
11
18.845888901850067
21
17.585795394997284
31
0
0
LINE
5
346
100
AcDbEntity
8
0
100
AcDbLine
10
18.845888901850067
20
17.585795394997284
30
0
11
19.476857348793907
21
17.586471452277106
31
0
0
LINE
5
347
100
AcDbEntity
8
0
100
AcDbLine
10
19.476857348793907
20
17.586471452277106
30
0
11
18.109661769757434
21
13.962903528855675
31
0
0
LINE
5
348
100
AcDbEntity
8
0
100
AcDbLine
10
18.109661769757434
20
13.962903528855675
30
0
11
17.536673111691268
21
13.962289594584609
31
0
0
LINE
5
349
100
AcDbEntity
8
0
100
AcDbLine
10
20.021839106690926
20
18.258952102422498
30
0
11
20.021082653651909
21
18.964954409417885
31
0
0
LINE
5
350
100
AcDbEntity
8
0
100
AcDbLine
10
20.021082653651909
20
18.964954409417889
30
0
11
20.634998221514081
21
18.965612195224544
31
0
0
LINE
5
351
100
AcDbEntity
8
0
100
AcDbLine
10
20.634998221514074
20
18.965612195224544
30
0
11
20.635754674553091
21
18.259609888229157
31
0
0
LINE
5
352
100
AcDbEntity
8
0
100
AcDbLine
10
20.635754674553091
20
18.259609888229157
30
0
11
20.021839106690923
21
18.258952102422501
31
0
0
LINE
5
353
100
AcDbEntity
8
0
100
AcDbLine
10
20.026439949211067
20
13.964957279480284
30
0
11
20.022559016144974
21
17.587056149636553
31
0
0
LINE
5
354
100
AcDbEntity
8
0
100
AcDbLine
10
20.022559016144974
20
17.587056149636553
30
0
11
20.636474584007146
21
17.587713935443212
31
0
0
LINE
5
355
100
AcDbEntity
8
0
100
AcDbLine
10
20.636474584007146
20
17.587713935443212
30
0
11
20.640355517073239
21
13.96561506528694
31
0
0
LINE
5
356
100
AcDbEntity
8
0
100
AcDbLine
10
20.640355517073239
20
13.96561506528694
30
0
11
20.026439949211067
21
13.964957279480284
31
0
0
LINE
5
357
100
AcDbEntity
8
0
100
AcDbLine
10
23.924800824905319
20
13.969134216159361
30
0
11
23.924311140483596
21
14.426159720193548
31
0
0
SPLINE
5
358
100
AcDbEntity
8
0
100
AcDbSpline
70
0
71
2
72
6
73
3
74
0
42
0.000000001
43
0.0000000001
44
0.0000000001
40
0
40
0
40
0
40
1
40
1
40
1
10
23.924311140483596
20
14.426159720193548
30
0
10
23.580414411343021
20
13.886910114330854
30
0
10
22.911928438327305
20
13.886193858532796
30
0
0
SPLINE
5
359
100
AcDbEntity
8
0
100
AcDbSpline
70
0
71
2
72
6
73
3
74
0
42
0.000000001
43
0.0000000001
44
0.0000000001
40
0
40
0
40
0
40
1
40
1
40
1
10
22.911928438327305
20
13.886193858532796
30
0
10
22.478778157099661
20
13.885729755450782
30
0
10
22.115288279604634
20
14.124084448190089
30
0
0
SPLINE
5
360
100
AcDbEntity
8
0
100
AcDbSpline
70
0
71
2
72
6
73
3
74
0
42
0.000000001
43
0.0000000001
44
0.0000000001
40
0
40
0
40
0
40
1
40
1
40
1
10
22.115288279604634
20
14.124084448190089
30
0
10
21.751799592924542
20
14.362440334298881
30
0
10
21.551819305159789
20
14.790261568418924
30
0
0
SPLINE
5
361
100
AcDbEntity
8
0
100
AcDbSpline
70
0
71
2
72
6
73
3
74
0
42
0.000000001
43
0.0000000001
44
0.0000000001
40
0
40
0
40
0
40
1
40
1
40
1
10
21.551819305159789
20
14.790261568418924
30
0
10
21.351837824025548
20
15.218083993353897
30
0
10
21.351242163782199
20
15.774017388153972
30
0
0
SPLINE
5
362
100
AcDbEntity
8
0
100
AcDbSpline
70
0
71
2
72
6
73
3
74
0
42
0.000000001
43
0.0000000001
44
0.0000000001
40
0
40
0
40
0
40
1
40
1
40
1
10
21.351242163782199
20
15.774017388153972
30
0
10
21.350661119440105
20
16.316309671780921
30
0
10
21.530951974525188
20
16.758180670042865
30
0
0
SPLINE
5
363
100
AcDbEntity
8
0
100
AcDbSpline
70
0
71
2
72
6
73
3
74
0
42
0.000000001
43
0.0000000001
44
0.0000000001
40
0
40
0
40
0
40
1
40
1
40
1
10
21.530951974525188
20
16.758180670042865
30
0
10
21.711242828332988
20
17.200052860397022
30
0
10
22.072517674525287
20
17.435774125664235
30
0
0
SPLINE
5
364
100
AcDbEntity
8
0
100
AcDbSpline
70
0
71
2
72
6
73
3
74
0
42
0.000000001
43
0.0000000001
44
0.0000000001
40
0
40
0
40
0
40
1
40
1
40
1
10
22.072517674525287
20
17.435774125664235
30
0
10
22.433793712809795
20
17.671495392208726
30
0
10
22.88058748939498
20
17.671974113746547
30
0
0
SPLINE
5
365
100
AcDbEntity
8
0
100
AcDbSpline
70
0
71
2
72
6
73
3
74
0
42
0.000000001
43
0.0000000001
44
0.0000000001
40
0
40
0
40
0
40
1
40
1
40
1
10
22.88058748939498
20
17.671974113746547
30
0
10
23.208008728224065
20
17.67232493241767
30
0
10
23.463954684305115
20
17.534468304878299
30
0
0
SPLINE
5
366
100
AcDbEntity
8
0
100
AcDbSpline
70
0
71
2
72
6
73
3
74
0
42
0.000000001
43
0.0000000001
44
0.0000000001
40
0
40
0
40
0
40
1
40
1
40
1
10
23.463954684305115
20
17.534468304878299
30
0
10
23.719900640386165
20
17.396611677338921
30
0
10
23.8804376221985
20
17.175091235310681
30
0
0
LINE
5
367
100
AcDbEntity
8
0
100
AcDbLine
10
23.8804376221985
20
17.175091235310681
30
0
11
23.878515427457941
21
18.969087493284096
31
0
0
LINE
5
368
100
AcDbEntity
8
0
100
AcDbLine
10
23.878515427457934
20
18.969087493284093
30
0
11
24.489020419503774
21
18.969741624796118
31
0
0
LINE
5
369
100
AcDbEntity
8
0
100
AcDbLine
10
24.489020419503774
20
18.969741624796118
30
0
11
24.494377715062935
21
13.969744494858514
31
0
0
LINE
5
370
100
AcDbEntity
8
0
100
AcDbLine
10
24.494377715062932
20
13.969744494858514
30
0
11
23.924800824905311
21
13.969134216159361
31
0
0
SPLINE
5
371
100
AcDbEntity
8
0
100
AcDbSpline
70
0
71
2
72
6
73
3
74
0
42
0.000000001
43
0.0000000001
44
0.0000000001
40
0
40
0
40
0
40
1
40
1
40
1
10
21.982210610726042
20
15.774693445433792
30
0
10
21.982956100881161
20
15.078922865887403
30
0
10
22.276639479598987
20
14.734763022424168
30
0
0
SPLINE
5
372
100
AcDbEntity
8
0
100
AcDbSpline
70
0
71
2
72
6
73
3
74
0
42
0.000000001
43
0.0000000001
44
0.0000000001
40
0
40
0
40
0
40
1
40
1
40
1
10
22.276639479598987
20
14.734763022424168
30
0
10
22.570324050409024
20
14.390603180238211
30
0
10
22.969368573473329
20
14.391030740373898
30
0
0
SPLINE
5
373
100
AcDbEntity
8
0
100
AcDbSpline
70
0
71
2
72
6
73
3
74
0
42
0.000000001
43
0.0000000001
44
0.0000000001
40
0
40
0
40
0
40
1
40
1
40
1
10
22.969368573473329
20
14.391030740373898
30
0
10
23.371823672353965
20
14.391461954804219
30
0
10
23.652848896436641
20
14.720889370550312
30
0
0
SPLINE
5
374
100
AcDbEntity
8
0
100
AcDbSpline
70
0
71
2
72
6
73
3
74
0
42
0.000000001
43
0.0000000001
44
0.0000000001
40
0
40
0
40
0
40
1
40
1
40
1
10
23.652848896436641
20
14.720889370550312
30
0
10
23.933874119242038
20
15.050317978388614
30
0
10
23.933150554854706
20
15.725625103037
30
0
0
SPLINE
5
375
100
AcDbEntity
8
0
100
AcDbSpline
70
0
71
2
72
6
73
3
74
0
42
0.000000001
43
0.0000000001
44
0.0000000001
40
0
40
0
40
0
40
1
40
1
40
1
10
23.933150554854706
20
15.725625103037
30
0
10
23.932353904574732
20
16.469143744012062
30
0
10
23.645488021917664
20
16.816722663973106
30
0
0
SPLINE
5
376
100
AcDbEntity
8
0
100
AcDbSpline
70
0
71
2
72
6
73
3
74
0
42
0.000000001
43
0.0000000001
44
0.0000000001
40
0
40
0
40
0
40
1
40
1
40
1
10
23.645488021917664
20
16.816722663973106
30
0
10
23.358620948445662
20
17.164300390564659
30
0
10
22.939112970483357
20
17.163850904661174
30
0
0
SPLINE
5
377
100
AcDbEntity
8
0
100
AcDbSpline
70
0
71
2
72
6
73
3
74
0
42
0.000000001
43
0.0000000001
44
0.0000000001
40
0
40
0
40
0
40
1
40
1
40
1
10
22.939112970483357
20
17.163850904661174
30
0
10
22.529835527877839
20
17.163412380364313
30
0
10
22.25563812960063
20
16.828875814714159
30
0
0
SPLINE
5
378
100
AcDbEntity
8
0
100
AcDbSpline
70
0
71
2
72
6
73
3
74
0
42
0.000000001
43
0.0000000001
44
0.0000000001
40
0
40
0
40
0
40
1
40
1
40
1
10
22.25563812960063
20
16.828875814714159
30
0
10
21.981439539231211
20
16.494339247786726
30
0
10
21.982210610726042
20
15.774693445433792
30
0
0
LINE
5
379
100
AcDbEntity
8
0
100
AcDbLine
10
27.451401784065929
20
13.972912827059806
30
0
11
27.446044488506764
21
18.972909956997412
31
0
0
LINE
5
380
100
AcDbEntity
8
0
100
AcDbLine
10
27.446044488506764
20
18.972909956997412
30
0
11
29.321896950256608
21
18.974919857363709
31
0
0
SPLINE
5
381
100
AcDbEntity
8
0
100
AcDbSpline
70
0
71
2
72
6
73
3
74
0
42
0.000000001
43
0.0000000001
44
0.0000000001
40
0
40
0
40
0
40
1
40
1
40
1
10
29.321896950256601
20
18.974919857363709
30
0
10
29.894883224138347
20
18.97553378908022
30
0
10
30.241224653215511
20
18.824131101675807
30
0
0
SPLINE
5
382
100
AcDbEntity
8
0
100
AcDbSpline
70
0
71
2
72
6
73
3
74
0
42
0.000000001
43
0.0000000001
44
0.0000000001
40
0
40
0
40
0
40
1
40
1
40
1
10
30.241224653215511
20
18.824131101675807
30
0
10
30.587568466477101
20
18.672728416825951
30
0
10
30.784017584148089
20
18.357454914534713
30
0
0
SPLINE
5
383
100
AcDbEntity
8
0
100
AcDbSpline
70
0
71
2
72
6
73
3
74
0
42
0.000000001
43
0.0000000001
44
0.0000000001
40
0
40
0
40
0
40
1
40
1
40
1
10
30.784017584148089
20
18.357454914534713
30
0
10
30.980469086642131
20
18.042180818751923
30
0
10
30.980838177425056
20
17.697706104795063
30
0
0
SPLINE
5
384
100
AcDbEntity
8
0
100
AcDbSpline
70
0
71
2
72
6
73
3
74
0
42
0.000000001
43
0.0000000001
44
0.0000000001
40
0
40
0
40
0
40
1
40
1
40
1
10
30.980838177425056
20
17.697706104795063
30
0
10
30.981181687506918
20
17.377106017598646
30
0
10
30.807542056160891
20
17.093837083616005
30
0
0
SPLINE
5
385
100
AcDbEntity
8
0
100
AcDbSpline
70
0
71
2
72
6
73
3
74
0
42
0.000000001
43
0.0000000001
44
0.0000000001
40
0
40
0
40
0
40
1
40
1
40
1
10
30.807542056160891
20
17.093837083616005
30
0
10
30.633902426092135
20
16.810566957541159
30
0
10
30.282793528129545
20
16.636248807990167
30
0
0
SPLINE
5
386
100
AcDbEntity
8
0
100
AcDbSpline
70
0
71
2
72
6
73
3
74
0
42
0.000000001
43
0.0000000001
44
0.0000000001
40
0
40
0
40
0
40
1
40
1
40
1
10
30.282793528129545
20
16.636248807990167
30
0
10
30.736550977669907
20
16.503718805003608
30
0
10
30.980753638850153
20
16.183380003066617
30
0
0
SPLINE
5
387
100
AcDbEntity
8
0
100
AcDbSpline
70
0
71
2
72
6
73
3
74
0
42
0.000000001
43
0.0000000001
44
0.0000000001
40
0
40
0
40
0
40
1
40
1
40
1
10
30.980753638850153
20
16.183380003066617
30
0
10
31.224958684214812
20
15.863041203684187
30
0
10
31.225426441591459
20
15.426480346640211
30
0
0
SPLINE
5
388
100
AcDbEntity
8
0
100
AcDbSpline
70
0
71
2
72
6
73
3
74
0
42
0.000000001
43
0.0000000001
44
0.0000000001
40
0
40
0
40
0
40
1
40
1
40
1
10
31.225426441591459
20
15.426480346640211
30
0
10
31.225802841602288
20
15.075183885004579
30
0
10
31.077763224183997
20
14.773183595834386
30
0
0
SPLINE
5
389
100
AcDbEntity
8
0
100
AcDbSpline
70
0
71
2
72
6
73
3
74
0
42
0.000000001
43
0.0000000001
44
0.0000000001
40
0
40
0
40
0
40
1
40
1
40
1
10
31.077763224183997
20
14.773183595834386
30
0
10
30.929723606765691
20
14.471183306664191
30
0
10
30.711619780310116
20
14.307238213792496
30
0
0
SPLINE
5
390
100
AcDbEntity
8
0
100
AcDbSpline
70
0
71
2
72
6
73
3
74
0
42
0.000000001
43
0.0000000001
44
0.0000000001
40
0
40
0
40
0
40
1
40
1
40
1
10
30.711619780310116
20
14.307238213792496
30
0
10
30.493513568392849
20
14.143294310458456
30
0
10
30.164475977743905
20
14.059380768362889
30
0
0
SPLINE
5
391
100
AcDbEntity
8
0
100
AcDbSpline
70
0
71
2
72
6
73
3
74
0
42
0.000000001
43
0.0000000001
44
0.0000000001
40
0
40
0
40
0
40
1
40
1
40
1
10
30.164475977743905
20
14.059380768362889
30
0
10
29.835438387094968
20
13.975467226267316
30
0
10
29.357948236070559
20
13.974955614800519
30
0
0
LINE
5
392
100
AcDbEntity
8
0
100
AcDbLine
10
29.357948236070559
20
13.974955614800519
30
0
11
27.451401784065922
21
13.972912827059806
31
0
0
LINE
5
393
100
AcDbEntity
8
0
100
AcDbLine
10
28.109959205441495
20
16.872664861024429
30
0
11
29.191132004786851
21
16.873823294136706
31
0
0
SPLINE
5
394
100
AcDbEntity
8
0
100
AcDbSpline
70
0
71
2
72
6
73
3
74
0
42
0.000000001
43
0.0000000001
44
0.0000000001
40
0
40
0
40
0
40
1
40
1
40
1
10
29.191132004786855
20
16.873823294136706
30
0
10
29.631104629739369
20
16.874294707085262
30
0
10
29.822037135352446
20
16.932480331109126
30
0
0
SPLINE
5
395
100
AcDbEntity
8
0
100
AcDbSpline
70
0
71
2
72
6
73
3
74
0
42
0.000000001
43
0.0000000001
44
0.0000000001
40
0
40
0
40
0
40
1
40
1
40
1
10
29.822037135352446
20
16.932480331109126
30
0
10
30.074346502555205
20
17.007784616627166
30
0
10
30.202057318855722
20
17.181864596224177
30
0
0
SPLINE
5
396
100
AcDbEntity
8
0
100
AcDbSpline
70
0
71
2
72
6
73
3
74
0
42
0.000000001
43
0.0000000001
44
0.0000000001
40
0
40
0
40
0
40
1
40
1
40
1
10
30.202057318855722
20
17.181864596224177
30
0
10
30.329770519340666
20
17.355944578375748
30
0
10
30.32948913354484
20
17.618563684602286
30
0
0
SPLINE
5
397
100
AcDbEntity
8
0
100
AcDbSpline
70
0
71
2
72
6
73
3
74
0
42
0.000000001
43
0.0000000001
44
0.0000000001
40
0
40
0
40
0
40
1
40
1
40
1
10
30.32948913354484
20
17.618563684602286
30
0
10
30.329222364927546
20
17.867540487563485
30
0
10
30.209645818533922
20
18.05670252145655
30
0
0
SPLINE
5
398
100
AcDbEntity
8
0
100
AcDbSpline
70
0
71
2
72
6
73
3
74
0
42
0.000000001
43
0.0000000001
44
0.0000000001
40
0
40
0
40
0
40
1
40
1
40
1
10
30.209645818533922
20
18.05670252145655
30
0
10
30.090071655047446
20
18.245865749996387
30
0
10
29.868305737030518
20
18.315545617294376
30
0
0
SPLINE
5
399
100
AcDbEntity
8
0
100
AcDbSpline
70
0
71
2
72
6
73
3
74
0
42
0.000000001
43
0.0000000001
44
0.0000000001
40
0
40
0
40
0
40
1
40
1
40
1
10
29.868305737030518
20
18.315545617294376
30
0
10
29.646539817736304
20
18.385226676684582
30
0
10
29.107656917833484
20
18.384649285359838
30
0
0
LINE
5
400
100
AcDbEntity
8
0
100
AcDbLine
10
29.107656917833484
20
18.384649285359838
30
0
11
28.108340322264556
21
18.383578557873303
31
0
0
LINE
5
401
100
AcDbEntity
8
0
100
AcDbLine
10
28.108340322264553
20
18.383578557873307
30
0
11
28.109959205441491
21
16.872664861024429
31
0
0
LINE
5
402
100
AcDbEntity
8
0
100
AcDbLine
10
28.112433208889811
20
14.563662118046942
30
0
11
29.357316031603609
21
14.564995959856141
31
0
0
SPLINE
5
403
100
AcDbEntity
8
0
100
AcDbSpline
70
0
71
2
72
6
73
3
74
0
42
0.000000001
43
0.0000000001
44
0.0000000001
40
0
40
0
40
0
40
1
40
1
40
1
10
29.357316031603602
20
14.564995959856141
30
0
10
29.677917310892241
20
14.56533947121528
30
0
10
29.807495994757637
20
14.589353559772423
30
0
0
SPLINE
5
404
100
AcDbEntity
8
0
100
AcDbSpline
70
0
71
2
72
6
73
3
74
0
42
0.000000001
43
0.0000000001
44
0.0000000001
40
0
40
0
40
0
40
1
40
1
40
1
10
29.807495994757637
20
14.589353559772423
30
0
10
30.035964299193026
20
14.630525311140648
30
0
10
30.189341464400403
20
14.726188265272715
30
0
0
SPLINE
5
405
100
AcDbEntity
8
0
100
AcDbSpline
70
0
71
2
72
6
73
3
74
0
42
0.000000001
43
0.0000000001
44
0.0000000001
40
0
40
0
40
0
40
1
40
1
40
1
10
30.189341464400403
20
14.726188265272715
30
0
10
30.342718630885059
20
14.821850027312573
30
0
10
30.441431012417624
20
15.004425981630789
30
0
0
SPLINE
5
406
100
AcDbEntity
8
0
100
AcDbSpline
70
0
71
2
72
6
73
3
74
0
42
0.000000001
43
0.0000000001
44
0.0000000001
40
0
40
0
40
0
40
1
40
1
40
1
10
30.441431012417624
20
15.004425981630789
30
0
10
30.540143395227474
20
15.187000743856789
30
0
10
30.539887589494079
20
15.42574581936899
30
0
0
SPLINE
5
407
100
AcDbEntity
8
0
100
AcDbSpline
70
0
71
2
72
6
73
3
74
0
42
0.000000001
43
0.0000000001
44
0.0000000001
40
0
40
0
40
0
40
1
40
1
40
1
10
30.539887589494079
20
15.42574581936899
30
0
10
30.539587932225089
20
15.705417804677193
30
0
10
30.396120274458902
20
15.911608330958993
30
0
0
SPLINE
5
408
100
AcDbEntity
8
0
100
AcDbSpline
70
0
71
2
72
6
73
3
74
0
42
0.000000001
43
0.0000000001
44
0.0000000001
40
0
40
0
40
0
40
1
40
1
40
1
10
30.396120274458902
20
15.911608330958993
30
0
10
30.252652617969993
20
16.117797665148579
30
0
10
29.998471015195982
20
16.201086311366467
30
0
0
SPLINE
5
409
100
AcDbEntity
8
0
100
AcDbSpline
70
0
71
2
72
6
73
3
74
0
42
0.000000001
43
0.0000000001
44
0.0000000001
40
0
40
0
40
0
40
1
40
1
40
1
10
29.998471015195982
20
16.201086311366467
30
0
10
29.744287028237544
20
16.284374955029794
30
0
10
29.266799261397569
20
16.283863346117556
30
0
0
LINE
5
410
100
AcDbEntity
8
0
100
AcDbLine
10
29.266799261397569
20
16.283863346117556
30
0
11
28.110591409908452
21
16.282624515968806
31
0
0
LINE
5
411
100
AcDbEntity
8
0
100
AcDbLine
10
28.110591409908452
20
16.282624515968806
30
0
11
28.112433208889819
21
14.563662118046942
31
0
0
LINE
5
412
100
AcDbEntity
8
0
100
AcDbLine
10
32.052353198847015
20
13.977842561205986
30
0
11
32.04847226578093
21
17.599941431362257
31
0
0
LINE
5
413
100
AcDbEntity
8
0
100
AcDbLine
10
32.048472265780923
20
17.599941431362257
30
0
11
32.600995084764662
21
17.600533437310972
31
0
0
LINE
5
414
100
AcDbEntity
8
0
100
AcDbLine
10
32.600995084764662
20
17.600533437310972
30
0
11
32.601583437057386
21
17.051420598097458
31
0
0
SPLINE
5
415
100
AcDbEntity
8
0
100
AcDbSpline
70
0
71
2
72
6
73
3
74
0
42
0.000000001
43
0.0000000001
44
0.0000000001
40
0
40
0
40
0
40
1
40
1
40
1
10
32.601583437057386
20
17.051420598097458
30
0
10
32.812630963081759
20
17.437049389272762
30
0
10
32.991558808600686
20
17.560024357783885
30
0
0
SPLINE
5
416
100
AcDbEntity
8
0
100
AcDbSpline
70
0
71
2
72
6
73
3
74
0
42
0.000000001
43
0.0000000001
44
0.0000000001
40
0
40
0
40
0
40
1
40
1
40
1
10
32.991558808600686
20
17.560024357783885
30
0
10
33.170484269935187
20
17.68299932374045
30
0
10
33.385354122640834
20
17.68322954813414
30
0
0
SPLINE
5
417
100
AcDbEntity
8
0
100
AcDbSpline
70
0
71
2
72
6
73
3
74
0
42
0.000000001
43
0.0000000001
44
0.0000000001
40
0
40
0
40
0
40
1
40
1
40
1
10
33.385354122640834
20
17.68322954813414
30
0
10
33.695722482388256
20
17.6835620953321
30
0
10
34.01653571459741
20
17.486088633067251
30
0
0
LINE
5
418
100
AcDbEntity
8
0
100
AcDbLine
10
34.01653571459741
20
17.486088633067251
30
0
11
33.805685524315038
21
16.916285171533293
31
0
0
SPLINE
5
419
100
AcDbEntity
8
0
100
AcDbSpline
70
0
71
2
72
6
73
3
74
0
42
0.000000001
43
0.0000000001
44
0.0000000001
40
0
40
0
40
0
40
1
40
1
40
1
10
33.805685524315045
20
16.916285171533296
30
0
10
33.580440232022937
20
17.049058823999864
30
0
10
33.3553398439605
20
17.048817637999555
30
0
0
SPLINE
5
420
100
AcDbEntity
8
0
100
AcDbSpline
70
0
71
2
72
6
73
3
74
0
42
0.000000001
43
0.0000000001
44
0.0000000001
40
0
40
0
40
0
40
1
40
1
40
1
10
33.3553398439605
20
17.048817637999555
30
0
10
33.154112294520182
20
17.048602030784394
30
0
10
32.993941384889879
20
16.927352449440559
30
0
0
SPLINE
5
421
100
AcDbEntity
8
0
100
AcDbSpline
70
0
71
2
72
6
73
3
74
0
42
0.000000001
43
0.0000000001
44
0.0000000001
40
0
40
0
40
0
40
1
40
1
40
1
10
32.993941384889879
20
16.927352449440559
30
0
10
32.833770475259584
20
16.806102868096723
30
0
10
32.765789183326604
20
16.591159929498417
30
0
0
SPLINE
5
422
100
AcDbEntity
8
0
100
AcDbSpline
70
0
71
2
72
6
73
3
74
0
42
0.000000001
43
0.0000000001
44
0.0000000001
40
0
40
0
40
0
40
1
40
1
40
1
10
32.765789183326604
20
16.591159929498417
30
0
10
32.663820343323295
20
16.263629059275793
30
0
10
32.66423694057508
20
15.874816263660492
30
0
0
LINE
5
423
100
AcDbEntity
8
0
100
AcDbLine
10
32.66423694057508
20
15.874816263660492
30
0
11
32.66626876670918
21
13.978500347012645
31
0
0
LINE
5
424
100
AcDbEntity
8
0
100
AcDbLine
10
32.666268766709187
20
13.978500347012645
30
0
11
32.052353198847015
21
13.977842561205989
31
0
0
SPLINE
5
425
100
AcDbEntity
8
0
100
AcDbSpline
70
0
71
2
72
6
73
3
74
0
42
0.000000001
43
0.0000000001
44
0.0000000001
40
0
40
0
40
0
40
1
40
1
40
1
10
34.154777350354124
20
15.791146440199588
30
0
10
34.153699313001042
20
16.797285379493395
30
0
10
34.712524364200021
20
17.282195400642337
30
0
0
SPLINE
5
426
100
AcDbEntity
8
0
100
AcDbSpline
70
0
71
2
72
6
73
3
74
0
42
0.000000001
43
0.0000000001
44
0.0000000001
40
0
40
0
40
0
40
1
40
1
40
1
10
34.712524364200021
20
17.282195400642337
30
0
10
35.179352764798679
20
17.685151745429252
30
0
10
35.851246929446312
20
17.685871652967386
30
0
0
SPLINE
5
427
100
AcDbEntity
8
0
100
AcDbSpline
70
0
71
2
72
6
73
3
74
0
42
0.000000001
43
0.0000000001
44
0.0000000001
40
0
40
0
40
0
40
1
40
1
40
1
10
35.851246929446312
20
17.685871652967386
30
0
10
36.598178530422125
20
17.68667196009655
30
0
10
37.072781314397346
20
17.197753345655972
30
0
0
SPLINE
5
428
100
AcDbEntity
8
0
100
AcDbSpline
70
0
71
2
72
6
73
3
74
0
42
0.000000001
43
0.0000000001
44
0.0000000001
40
0
40
0
40
0
40
1
40
1
40
1
10
37.072781314397346
20
17.197753345655972
30
0
10
37.547384098372575
20
16.708834731215397
30
0
10
37.548308652796536
20
15.845942360392023
30
0
0
SPLINE
5
429
100
AcDbEntity
8
0
100
AcDbSpline
70
0
71
2
72
6
73
3
74
0
42
0.000000001
43
0.0000000001
44
0.0000000001
40
0
40
0
40
0
40
1
40
1
40
1
10
37.548308652796536
20
15.845942360392023
30
0
10
37.549057797246277
20
15.146761205029302
30
0
10
37.339733792232877
20
14.745786055697623
30
0
0
SPLINE
5
430
100
AcDbEntity
8
0
100
AcDbSpline
70
0
71
2
72
6
73
3
74
0
42
0.000000001
43
0.0000000001
44
0.0000000001
40
0
40
0
40
0
40
1
40
1
40
1
10
37.339733792232877
20
14.745786055697623
30
0
10
37.130407401757772
20
14.344812095903595
30
0
10
36.729894528999424
20
14.122690511551422
30
0
0
SPLINE
5
431
100
AcDbEntity
8
0
100
AcDbSpline
70
0
71
2
72
6
73
3
74
0
42
0.000000001
43
0.0000000001
44
0.0000000001
40
0
40
0
40
0
40
1
40
1
40
1
10
36.729894528999424
20
14.122690511551422
30
0
10
36.329381654963811
20
13.900570119291459
30
0
10
35.855303271847959
20
13.900062163396573
30
0
0
SPLINE
5
432
100
AcDbEntity
8
0
100
AcDbSpline
70
0
71
2
72
6
73
3
74
0
42
0.000000001
43
0.0000000001
44
0.0000000001
40
0
40
0
40
0
40
1
40
1
40
1
10
35.855303271847959
20
13.900062163396573
30
0
10
35.09473175179123
20
13.899247241643437
30
0
10
34.625244871188137
20
14.386465451655774
30
0
0
SPLINE
5
433
100
AcDbEntity
8
0
100
AcDbSpline
70
0
71
2
72
6
73
3
74
0
42
0.000000001
43
0.0000000001
44
0.0000000001
40
0
40
0
40
0
40
1
40
1
40
1
10
34.625244871188137
20
14.386465451655774
30
0
10
34.1557603734922
20
14.873684856314879
30
0
10
34.154777350354124
20
15.791146440199588
30
0
0
SPLINE
5
434
100
AcDbEntity
8
0
100
AcDbSpline
70
0
71
2
72
6
73
3
74
0
42
0.000000001
43
0.0000000001
44
0.0000000001
40
0
40
0
40
0
40
1
40
1
40
1
10
34.78574460520575
20
15.79182249620213
30
0
10
34.786490095360861
20
15.096051916655743
30
0
10
35.09040822012858
20
14.750198345491622
30
0
0
SPLINE
5
435
100
AcDbEntity
8
0
100
AcDbSpline
70
0
71
2
72
6
73
3
74
0
42
0.000000001
43
0.0000000001
44
0.0000000001
40
0
40
0
40
0
40
1
40
1
40
1
10
35.09040822012858
20
14.750198345491622
30
0
10
35.394326346173585
20
14.40434358223529
30
0
10
35.854762426024102
20
14.404836920951642
30
0
0
SPLINE
5
436
100
AcDbEntity
8
0
100
AcDbSpline
70
0
71
2
72
6
73
3
74
0
42
0.000000001
43
0.0000000001
44
0.0000000001
40
0
40
0
40
0
40
1
40
1
40
1
10
35.854762426024102
20
14.404836920951642
30
0
10
36.311789122150493
20
14.405326606650643
30
0
10
36.614963585826324
20
14.753536538986429
30
0
0
SPLINE
5
437
100
AcDbEntity
8
0
100
AcDbSpline
70
0
71
2
72
6
73
3
74
0
42
0.000000001
43
0.0000000001
44
0.0000000001
40
0
40
0
40
0
40
1
40
1
40
1
10
36.614963585826324
20
14.753536538986429
30
0
10
36.918138048224876
20
15.101747663414425
30
0
10
36.917374286596598
20
15.81457112204248
30
0
0
SPLINE
5
438
100
AcDbEntity
8
0
100
AcDbSpline
70
0
71
2
72
6
73
3
74
0
42
0.000000001
43
0.0000000001
44
0.0000000001
40
0
40
0
40
0
40
1
40
1
40
1
10
36.917374286596598
20
15.81457112204248
30
0
10
36.916654377781185
20
16.486466478782322
30
0
10
36.611029175689708
20
16.832319412975419
30
0
0
SPLINE
5
439
100
AcDbEntity
8
0
100
AcDbSpline
70
0
71
2
72
6
73
3
74
0
42
0.000000001
43
0.0000000001
44
0.0000000001
40
0
40
0
40
0
40
1
40
1
40
1
10
36.611029175689708
20
16.832319412975419
30
0
10
36.305406357782644
20
17.17817234972307
30
0
10
35.851791429564798
20
17.177686319595985
30
0
0
SPLINE
5
440
100
AcDbEntity
8
0
100
AcDbSpline
70
0
71
2
72
6
73
3
74
0
42
0.000000001
43
0.0000000001
44
0.0000000001
40
0
40
0
40
0
40
1
40
1
40
1
10
35.851791429564798
20
17.177686319595985
30
0
10
35.391355349714274
20
17.177192980879632
30
0
10
35.088177232382449
20
16.832393028314073
30
0
0
SPLINE
5
441
100
AcDbEntity
8
0
100
AcDbSpline
70
0
71
2
72
6
73
3
74
0
42
0.000000001
43
0.0000000001
44
0.0000000001
40
0
40
0
40
0
40
1
40
1
40
1
10
35.088177232382449
20
16.832393028314073
30
0
10
34.784999115050624
20
16.487593075748517
30
0
10
34.78574460520575
20
15.79182249620213
30
0
0
LINE
5
442
100
AcDbEntity
8
0
100
AcDbLine
10
38.938433325891253
20
13.985220718738049
30
0
11
37.826094986949137
21
17.606131921424982
31
0
0
LINE
5
443
100
AcDbEntity
8
0
100
AcDbLine
10
37.826094986949137
20
17.606131921424982
30
0
11
38.460474009709309
21
17.606811632999435
31
0
0
LINE
5
444
100
AcDbEntity
8
0
100
AcDbLine
10
38.460474009709309
20
17.606811632999438
30
0
11
39.03911217562095
21
15.516707501878466
31
0
0
LINE
5
445
100
AcDbEntity
8
0
100
AcDbLine
10
39.039112175620957
20
15.516707501878464
30
0
11
39.254815222830189
21
14.739312135041548
31
0
0
SPLINE
5
446
100
AcDbEntity
8
0
100
AcDbSpline
70
0
71
2
72
6
73
3
74
0
42
0.000000001
43
0.0000000001
44
0.0000000001
40
0
40
0
40
0
40
1
40
1
40
1
10
39.254815222830182
20
14.739312135041549
30
0
10
39.268395401809485
20
14.797307733189962
30
0
10
39.441600164430561
20
15.486442341869571
30
0
0
LINE
5
447
100
AcDbEntity
8
0
100
AcDbLine
10
39.441600164430561
20
15.486442341869571
30
0
11
40.015725192170521
21
17.608478022006594
31
0
0
LINE
5
448
100
AcDbEntity
8
0
100
AcDbLine
10
40.015725192170521
20
17.608478022006594
30
0
11
40.646694831206567
21
17.609154080563695
31
0
0
LINE
5
449
100
AcDbEntity
8
0
100
AcDbLine
10
40.646694831206567
20
17.609154080563695
30
0
11
41.191235817654352
21
15.508781676492838
31
0
0
LINE
5
450
100
AcDbEntity
8
0
100
AcDbLine
10
41.191235817654352
20
15.508781676492839
30
0
11
41.372741748057152
21
14.81661535421015
31
0
0
LINE
5
451
100
AcDbEntity
8
0
100
AcDbLine
10
41.372741748057152
20
14.81661535421015
30
0
11
41.580041304680392
21
15.516019425377296
31
0
0
LINE
5
452
100
AcDbEntity
8
0
100
AcDbLine
10
41.580041304680392
20
15.516019425377294
30
0
11
42.198534245759241
21
17.610816813998941
31
0
0
LINE
5
453
100
AcDbEntity
8
0
100
AcDbLine
10
42.198534245759234
20
17.610816813998941
30
0
11
42.795395742447518
21
17.611456327055159
31
0
0
LINE
5
454
100
AcDbEntity
8
0
100
AcDbLine
10
42.795395742447525
20
17.611456327055159
30
0
11
41.666944046831048
21
13.988144208089846
31
0
0
LINE
5
455
100
AcDbEntity
8
0
100
AcDbLine
10
41.666944046831048
20
13.988144208089846
30
0
11
41.029155640346751
21
13.987460843498038
31
0
0
LINE
5
456
100
AcDbEntity
8
0
100
AcDbLine
10
41.029155640346751
20
13.987460843498038
30
0
11
40.450433423742645
21
16.156010006533002
31
0
0
LINE
5
457
100
AcDbEntity
8
0
100
AcDbLine
10
40.450433423742638
20
16.156010006533002
30
0
11
40.309934799533671
21
16.773185724253626
31
0
0
LINE
5
458
100
AcDbEntity
8
0
100
AcDbLine
10
40.309934799533671
20
16.773185724253626
30
0
11
39.579633500284089
21
13.985907738901769
31
0
0
LINE
5
459
100
AcDbEntity
8
0
100
AcDbLine
10
39.579633500284089
20
13.985907738901769
30
0
11
38.938433325891253
21
13.985220718738049
31
0
0
LINE
5
460
100
AcDbEntity
8
0
100
AcDbLine
10
43.314284352609896
20
13.98990926688392
30
0
11
43.31040341954381
21
17.612008137040188
31
0
0
LINE
5
461
100
AcDbEntity
8
0
100
AcDbLine
10
43.31040341954381
20
17.612008137040188
30
0
11
43.86292623852755
21
17.612600142988903
31
0
0
LINE
5
462
100
AcDbEntity
8
0
100
AcDbLine
10
43.86292623852755
20
17.612600142988903
30
0
11
43.863478047235311
21
17.097593657984834
31
0
0
SPLINE
5
463
100
AcDbEntity
8
0
100
AcDbSpline
70
0
71
2
72
6
73
3
74
0
42
0.000000001
43
0.0000000001
44
0.0000000001
40
0
40
0
40
0
40
1
40
1
40
1
10
43.863478047235304
20
17.097593657984834
30
0
10
44.261884248696965
20
17.694883312132195
30
0
10
45.015634617121023
20
17.69569092529607
30
0
0
SPLINE
5
464
100
AcDbEntity
8
0
100
AcDbSpline
70
0
71
2
72
6
73
3
74
0
42
0.000000001
43
0.0000000001
44
0.0000000001
40
0
40
0
40
0
40
1
40
1
40
1
10
45.015634617121023
20
17.69569092529607
30
0
10
45.343057048042326
20
17.696041745244472
30
0
10
45.617738649299298
20
17.578668670584936
30
0
0
SPLINE
5
465
100
AcDbEntity
8
0
100
AcDbSpline
70
0
71
2
72
6
73
3
74
0
42
0.000000001
43
0.0000000001
44
0.0000000001
40
0
40
0
40
0
40
1
40
1
40
1
10
45.617738649299298
20
17.578668670584936
30
0
10
45.892422634740704
20
17.461295598479964
30
0
10
46.029052695909733
20
17.270445950828506
30
0
0
SPLINE
5
466
100
AcDbEntity
8
0
100
AcDbSpline
70
0
71
2
72
6
73
3
74
0
42
0.000000001
43
0.0000000001
44
0.0000000001
40
0
40
0
40
0
40
1
40
1
40
1
10
46.029052695909733
20
17.270445950828506
30
0
10
46.16568275707877
20
17.079596303177048
30
0
10
46.220533355935927
20
16.817035665664633
30
0
0
SPLINE
5
467
100
AcDbEntity
8
0
100
AcDbSpline
70
0
71
2
72
6
73
3
74
0
42
0.000000001
43
0.0000000001
44
0.0000000001
40
0
40
0
40
0
40
1
40
1
40
1
10
46.220533355935927
20
16.817035665664633
30
0
10
46.254824215569883
20
16.646541036164415
30
0
10
46.25528101133991
20
16.220210714477229
30
0
0
LINE
5
468
100
AcDbEntity
8
0
100
AcDbLine
10
46.25528101133991
20
16.220210714477229
30
0
11
46.257667310439771
21
13.993062983183965
31
0
0
LINE
5
469
100
AcDbEntity
8
0
100
AcDbLine
10
46.257667310439771
20
13.993062983183965
30
0
11
45.643751742577606
21
13.992405197377307
31
0
0
LINE
5
470
100
AcDbEntity
8
0
100
AcDbLine
10
45.643751742577592
20
13.992405197377307
30
0
11
45.641391024817452
21
16.195677705864025
31
0
0
SPLINE
5
471
100
AcDbEntity
8
0
100
AcDbSpline
70
0
71
2
72
6
73
3
74
0
42
0.000000001
43
0.0000000001
44
0.0000000001
40
0
40
0
40
0
40
1
40
1
40
1
10
45.641391024817452
20
16.195677705864028
30
0
10
45.640989044744188
20
16.570848198213994
30
0
10
45.56916659698102
20
16.756652011062354
30
0
0
SPLINE
5
472
100
AcDbEntity
8
0
100
AcDbSpline
70
0
71
2
72
6
73
3
74
0
42
0.000000001
43
0.0000000001
44
0.0000000001
40
0
40
0
40
0
40
1
40
1
40
1
10
45.56916659698102
20
16.756652011062354
30
0
10
45.497344150495124
20
16.942454631818503
30
0
10
45.314754213414844
20
17.053104623477065
30
0
0
SPLINE
5
473
100
AcDbEntity
8
0
100
AcDbSpline
70
0
71
2
72
6
73
3
74
0
42
0.000000001
43
0.0000000001
44
0.0000000001
40
0
40
0
40
0
40
1
40
1
40
1
10
45.314754213414844
20
17.053104623477065
30
0
10
45.13216665988034
20
17.163755213736287
30
0
10
44.886600432735477
20
17.163492099413627
30
0
0
SPLINE
5
474
100
AcDbEntity
8
0
100
AcDbSpline
70
0
71
2
72
6
73
3
74
0
42
0.000000001
43
0.0000000001
44
0.0000000001
40
0
40
0
40
0
40
1
40
1
40
1
10
44.886600432735477
20
17.163492099413627
30
0
10
44.49437825339605
20
17.163071849144483
30
0
10
44.209856576934541
20
16.913789906833703
30
0
0
SPLINE
5
475
100
AcDbEntity
8
0
100
AcDbSpline
70
0
71
2
72
6
73
3
74
0
42
0.000000001
43
0.0000000001
44
0.0000000001
40
0
40
0
40
0
40
1
40
1
40
1
10
44.209856576934541
20
16.913789906833703
30
0
10
43.92533489983439
20
16.664508560569029
30
0
10
43.926080389989508
20
15.968737981022642
30
0
0
LINE
5
476
100
AcDbEntity
8
0
100
AcDbLine
10
43.926080389989508
20
15.968737981022642
30
0
11
43.928199920472068
21
13.990567052690579
31
0
0
LINE
5
477
100
AcDbEntity
8
0
100
AcDbLine
10
43.928199920472075
20
13.990567052690576
30
0
11
43.314284352609903
21
13.98990926688392
31
0
0
LINE
5
478
100
AcDbEntity
8
0
100
AcDbLine
10
48.403991615354549
20
16.215691811890583
30
0
11
48.401455487620197
21
18.58267553583795
31
0
0
LINE
5
479
100
AcDbEntity
8
0
100
AcDbLine
10
48.401455487620204
20
18.58267553583795
30
0
11
47.501044398632743
21
18.581710781618483
31
0
0
LINE
5
480
100
AcDbEntity
8
0
100
AcDbLine
10
47.501044398632743
20
18.581710781618483
30
0
11
47.500602221318516
21
18.99439760794812
31
0
0
LINE
5
481
100
AcDbEntity
8
0
100
AcDbLine
10
47.500602221318516
20
18.994397607948123
30
0
11
49.772086246131913
21
18.996831411600915
31
0
0
LINE
5
482
100
AcDbEntity
8
0
100
AcDbLine
10
49.772086246131913
20
18.996831411600915
30
0
11
49.772528423446133
21
18.584144585271279
31
0
0
LINE
5
483
100
AcDbEntity
8
0
100
AcDbLine
10
49.772528423446133
20
18.584144585271275
30
0
11
48.865298567010427
21
18.583172525017101
31
0
0
LINE
5
484
100
AcDbEntity
8
0
100
AcDbLine
10
48.865298567010427
20
18.583172525017101
30
0
11
48.867834694744786
21
16.216188801069734
31
0
0
LINE
5
485
100
AcDbEntity
8
0
100
AcDbLine
10
48.867834694744772
20
16.216188801069734
30
0
11
48.403991615354549
21
16.215691811890583
31
0
0
LINE
5
486
100
AcDbEntity
8
0
100
AcDbLine
10
50.085432910927906
20
16.217493408521872
30
0
11
50.082454605879335
21
18.997163958798879
31
0
0
LINE
5
487
100
AcDbEntity
8
0
100
AcDbLine
10
50.082454605879335
20
18.997163958798879
30
0
11
50.764584074252603
21
18.997894833052744
31
0
0
LINE
5
488
100
AcDbEntity
8
0
100
AcDbLine
10
50.764584074252596
20
18.99789483305274
30
0
11
51.469553603211395
21
16.778321646905354
31
0
0
LINE
5
489
100
AcDbEntity
8
0
100
AcDbLine
10
51.469553603211395
20
16.778321646905354
30
0
11
52.145894697988588
21
18.999374851756361
31
0
0
LINE
5
490
100
AcDbEntity
8
0
100
AcDbLine
10
52.145894697988588
20
18.999374851756361
30
0
11
52.814377094727675
21
19.000091103722582
31
0
0
LINE
5
491
100
AcDbEntity
8
0
100
AcDbLine
10
52.814377094727675
20
19.000091103722582
30
0
11
52.81735539977624
21
16.220420553445575
31
0
0
LINE
5
492
100
AcDbEntity
8
0
100
AcDbLine
10
52.81735539977624
20
16.220420553445575
30
0
11
52.394439230182016
21
16.219967415802017
31
0
0
LINE
5
493
100
AcDbEntity
8
0
100
AcDbLine
10
52.394439230182016
20
16.219967415802017
30
0
11
52.391939646671275
21
18.55284418949384
31
0
0
LINE
5
494
100
AcDbEntity
8
0
100
AcDbLine
10
52.391939646671275
20
18.55284418949384
30
0
11
51.678201619460999
21
16.219199996047266
31
0
0
LINE
5
495
100
AcDbEntity
8
0
100
AcDbLine
10
51.678201619460999
20
16.219199996047266
30
0
11
51.258694833590901
21
16.218750511421064
31
0
0
LINE
5
496
100
AcDbEntity
8
0
100
AcDbLine
10
51.258694833590901
20
16.218750511421064
30
0
11
50.509227104880736
21
18.584933928239266
31
0
0
LINE
5
497
100
AcDbEntity
8
0
100
AcDbLine
10
50.509227104880736
20
18.584933928239266
30
0
11
50.511763232615088
21
16.217950204291899
31
0
0
LINE
5
498
100
AcDbEntity
8
0
100
AcDbLine
10
50.511763232615081
20
16.217950204291899
30
0
11
50.085432910927892
21
16.217493408521872
31
0
0
ENDSEC
0
SECTION
2
OBJECTS
0
DICTIONARY
5
C
100
AcDbDictionary
3
ACAD_GROUP
350
D
3
ACAD_MLINESTYLE
350
17
0
DICTIONARY
5
D
100
AcDbDictionary
0
DICTIONARY
5
1A
330
C
100
AcDbDictionary
0
DICTIONARY
5
17
100
AcDbDictionary
0
ENDSEC
0
EOF
