<svg width="18.25in" height="6.125in" viewBox="0 0 18.25 6.125" xmlns="http://www.w3.org/2000/svg" version="1.1" preserveAspectRatio="xMidYMid meet"><g id="svgGroup" stroke-linecap="round" fill-rule="evenodd" font-size="9pt" stroke="#000" stroke-width="0.25mm" fill="none" style="stroke:#000;stroke-width:0.25mm;fill:none"><path d="M 0 4.625 L 0 5.131 L 0.23 5.131 L 0.23 5.619 L 0 5.619 L 0 6.125 L 0.579 6.125 L 0.579 5.895 L 1.067 5.895 L 1.067 6.125 L 1.555 6.125 L 1.555 5.895 L 2.043 5.895 L 2.043 6.125 L 2.531 6.125 L 2.531 5.895 L 3.018 5.895 L 3.018 6.125 L 3.506 6.125 L 3.506 5.895 L 3.994 5.895 L 3.994 6.125 L 4.482 6.125 L 4.482 5.895 L 4.97 5.895 L 4.97 6.125 L 5.457 6.125 L 5.457 5.895 L 5.945 5.895 L 5.945 6.125 L 6.433 6.125 L 6.433 5.895 L 6.921 5.895 L 6.921 6.125 L 7.5 6.125 L 7.5 5.619 L 7.27 5.619 L 7.27 5.131 L 7.5 5.131 L 7.5 4.625 L 6.921 4.625 L 6.921 4.855 L 6.433 4.855 L 6.433 4.625 L 5.945 4.625 L 5.945 4.855 L 5.457 4.855 L 5.457 4.625 L 4.97 4.625 L 4.97 4.855 L 4.482 4.855 L 4.482 4.625 L 3.994 4.625 L 3.994 4.855 L 3.506 4.855 L 3.506 4.625 L 3.018 4.625 L 3.018 4.855 L 2.531 4.855 L 2.531 4.625 L 2.043 4.625 L 2.043 4.855 L 1.555 4.855 L 1.555 4.625 L 1.067 4.625 L 1.067 4.855 L 0.579 4.855 L 0.579 4.625 L 0 4.625 Z" id="front_outsideCutPath" stroke="#FF0000" stroke-width="0.1" style="stroke:#FF0000;stroke-width:0.1" vector-effect="non-scaling-stroke"/><path d="M 7.855 4.625 L 7.855 5.131 L 7.625 5.131 L 7.625 5.619 L 7.855 5.619 L 7.855 6.125 L 8.393 6.125 L 8.393 5.895 L 8.881 5.895 L 8.881 6.125 L 9.369 6.125 L 9.369 5.895 L 9.857 5.895 L 9.857 6.125 L 10.345 6.125 L 10.395 6.125 L 10.395 5.619 L 10.625 5.619 L 10.625 5.131 L 10.395 5.131 L 10.395 4.625 L 9.857 4.625 L 9.857 4.855 L 9.369 4.855 L 9.369 4.625 L 8.881 4.625 L 8.881 4.855 L 8.393 4.855 L 8.393 4.625 L 7.906 4.625 L 7.855 4.625 Z" id="left_outsideCutPath" stroke="#FF0000" stroke-width="0.1" style="stroke:#FF0000;stroke-width:0.1" vector-effect="non-scaling-stroke"/><path d="M 10.98 3.355 L 10.98 3.893 L 10.75 3.893 L 10.75 4.381 L 10.98 4.381 L 10.98 4.869 L 10.75 4.869 L 10.75 5.357 L 10.98 5.357 L 10.98 5.845 L 10.98 5.895 L 11.329 5.895 L 11.329 6.125 L 11.817 6.125 L 11.817 5.895 L 12.305 5.895 L 12.305 6.125 L 12.793 6.125 L 12.793 5.895 L 13.281 5.895 L 13.281 6.125 L 13.768 6.125 L 13.768 5.895 L 14.256 5.895 L 14.256 6.125 L 14.744 6.125 L 14.744 5.895 L 15.232 5.895 L 15.232 6.125 L 15.72 6.125 L 15.72 5.895 L 16.207 5.895 L 16.207 6.125 L 16.695 6.125 L 16.695 5.895 L 17.183 5.895 L 17.183 6.125 L 17.671 6.125 L 17.671 5.895 L 18.02 5.895 L 18.02 5.357 L 18.25 5.357 L 18.25 4.869 L 18.02 4.869 L 18.02 4.381 L 18.25 4.381 L 18.25 3.893 L 18.02 3.893 L 18.02 3.406 L 18.02 3.355 L 17.671 3.355 L 17.671 3.125 L 17.183 3.125 L 17.183 3.355 L 16.695 3.355 L 16.695 3.125 L 16.207 3.125 L 16.207 3.355 L 15.72 3.355 L 15.72 3.125 L 15.232 3.125 L 15.232 3.355 L 14.744 3.355 L 14.744 3.125 L 14.256 3.125 L 14.256 3.355 L 13.768 3.355 L 13.768 3.125 L 13.281 3.125 L 13.281 3.355 L 12.793 3.355 L 12.793 3.125 L 12.305 3.125 L 12.305 3.355 L 11.817 3.355 L 11.817 3.125 L 11.329 3.125 L 11.329 3.355 L 10.98 3.355 Z" id="top_outsideCutPath" stroke="#FF0000" stroke-width="0.1" style="stroke:#FF0000;stroke-width:0.1" vector-effect="non-scaling-stroke"/><path d="M 0 3 L 0 3.506 L 0.23 3.506 L 0.23 3.994 L 0 3.994 L 0 4.5 L 0.579 4.5 L 0.579 4.27 L 1.067 4.27 L 1.067 4.5 L 1.555 4.5 L 1.555 4.27 L 2.043 4.27 L 2.043 4.5 L 2.531 4.5 L 2.531 4.27 L 3.018 4.27 L 3.018 4.5 L 3.506 4.5 L 3.506 4.27 L 3.994 4.27 L 3.994 4.5 L 4.482 4.5 L 4.482 4.27 L 4.97 4.27 L 4.97 4.5 L 5.457 4.5 L 5.457 4.27 L 5.945 4.27 L 5.945 4.5 L 6.433 4.5 L 6.433 4.27 L 6.921 4.27 L 6.921 4.5 L 7.5 4.5 L 7.5 3.994 L 7.27 3.994 L 7.27 3.506 L 7.5 3.506 L 7.5 3 L 6.921 3 L 6.921 3.23 L 6.433 3.23 L 6.433 3 L 5.945 3 L 5.945 3.23 L 5.457 3.23 L 5.457 3 L 4.97 3 L 4.97 3.23 L 4.482 3.23 L 4.482 3 L 3.994 3 L 3.994 3.23 L 3.506 3.23 L 3.506 3 L 3.018 3 L 3.018 3.23 L 2.531 3.23 L 2.531 3 L 2.043 3 L 2.043 3.23 L 1.555 3.23 L 1.555 3 L 1.067 3 L 1.067 3.23 L 0.579 3.23 L 0.579 3 L 0 3 Z" id="back_outsideCutPath" stroke="#FF0000" stroke-width="0.1" style="stroke:#FF0000;stroke-width:0.1" vector-effect="non-scaling-stroke"/><path d="M 7.855 3 L 7.855 3.506 L 7.625 3.506 L 7.625 3.994 L 7.855 3.994 L 7.855 4.5 L 8.393 4.5 L 8.393 4.27 L 8.881 4.27 L 8.881 4.5 L 9.369 4.5 L 9.369 4.27 L 9.857 4.27 L 9.857 4.5 L 10.345 4.5 L 10.395 4.5 L 10.395 3.994 L 10.625 3.994 L 10.625 3.506 L 10.395 3.506 L 10.395 3 L 9.857 3 L 9.857 3.23 L 9.369 3.23 L 9.369 3 L 8.881 3 L 8.881 3.23 L 8.393 3.23 L 8.393 3 L 7.906 3 L 7.855 3 Z" id="right_outsideCutPath" stroke="#FF0000" stroke-width="0.1" style="stroke:#FF0000;stroke-width:0.1" vector-effect="non-scaling-stroke"/><path d="M 10.98 0.23 L 10.98 0.768 L 10.75 0.768 L 10.75 1.256 L 10.98 1.256 L 10.98 1.744 L 10.75 1.744 L 10.75 2.232 L 10.98 2.232 L 10.98 2.72 L 10.98 2.77 L 11.329 2.77 L 11.329 3 L 11.817 3 L 11.817 2.77 L 12.305 2.77 L 12.305 3 L 12.793 3 L 12.793 2.77 L 13.281 2.77 L 13.281 3 L 13.768 3 L 13.768 2.77 L 14.256 2.77 L 14.256 3 L 14.744 3 L 14.744 2.77 L 15.232 2.77 L 15.232 3 L 15.72 3 L 15.72 2.77 L 16.207 2.77 L 16.207 3 L 16.695 3 L 16.695 2.77 L 17.183 2.77 L 17.183 3 L 17.671 3 L 17.671 2.77 L 18.02 2.77 L 18.02 2.232 L 18.25 2.232 L 18.25 1.744 L 18.02 1.744 L 18.02 1.256 L 18.25 1.256 L 18.25 0.768 L 18.02 0.768 L 18.02 0.28 L 18.02 0.23 L 17.671 0.23 L 17.671 0 L 17.183 0 L 17.183 0.23 L 16.695 0.23 L 16.695 0 L 16.207 0 L 16.207 0.23 L 15.72 0.23 L 15.72 0 L 15.232 0 L 15.232 0.23 L 14.744 0.23 L 14.744 0 L 14.256 0 L 14.256 0.23 L 13.768 0.23 L 13.768 0 L 13.281 0 L 13.281 0.23 L 12.793 0.23 L 12.793 0 L 12.305 0 L 12.305 0.23 L 11.817 0.23 L 11.817 0 L 11.329 0 L 11.329 0.23 L 10.98 0.23 Z" id="bottom_outsideCutPath" stroke="#FF0000" stroke-width="0.1" style="stroke:#FF0000;stroke-width:0.1" vector-effect="non-scaling-stroke"/></g></svg>